<?xml version="1.0" encoding="utf-8" standalone="no"?>
<!DOCTYPE svg PUBLIC "-//W3C//DTD SVG 1.1//EN"
  "http://www.w3.org/Graphics/SVG/1.1/DTD/svg11.dtd">
<!-- Created with matplotlib (https://matplotlib.org/) -->
<svg height="432pt" version="1.1" viewBox="0 0 720 432" width="720pt" xmlns="http://www.w3.org/2000/svg" xmlns:xlink="http://www.w3.org/1999/xlink">
 <defs>
  <style type="text/css">
*{stroke-linecap:butt;stroke-linejoin:round;}
  </style>
 </defs>
 <g id="figure_1">
  <g id="patch_1">
   <path d="M 0 432 
L 720 432 
L 720 0 
L 0 0 
z
" style="fill:#ffffff;"/>
  </g>
  <g id="axes_1">
   <g id="patch_2">
    <path d="M 90 378 
L 648 378 
L 648 51.84 
L 90 51.84 
z
" style="fill:#ffffff;"/>
   </g>
   <g id="matplotlib.axis_1">
    <g id="xtick_1">
     <g id="line2d_1">
      <path clip-path="url(#p611ab7c9fa)" d="M 159.75 378 
L 159.75 51.84 
" style="fill:none;stroke:#cccccc;stroke-dasharray:3.7,1.6;stroke-dashoffset:0;stroke-opacity:0.5;"/>
     </g>
     <g id="text_1">
      <!-- Boiling-2min -->
      <defs>
       <path d="M 19.671875 34.8125 
L 19.671875 8.109375 
L 35.5 8.109375 
Q 43.453125 8.109375 47.28125 11.40625 
Q 51.125 14.703125 51.125 21.484375 
Q 51.125 28.328125 47.28125 31.5625 
Q 43.453125 34.8125 35.5 34.8125 
z
M 19.671875 64.796875 
L 19.671875 42.828125 
L 34.28125 42.828125 
Q 41.5 42.828125 45.03125 45.53125 
Q 48.578125 48.25 48.578125 53.8125 
Q 48.578125 59.328125 45.03125 62.0625 
Q 41.5 64.796875 34.28125 64.796875 
z
M 9.8125 72.90625 
L 35.015625 72.90625 
Q 46.296875 72.90625 52.390625 68.21875 
Q 58.5 63.53125 58.5 54.890625 
Q 58.5 48.1875 55.375 44.234375 
Q 52.25 40.28125 46.1875 39.3125 
Q 53.46875 37.75 57.5 32.78125 
Q 61.53125 27.828125 61.53125 20.40625 
Q 61.53125 10.640625 54.890625 5.3125 
Q 48.25 0 35.984375 0 
L 9.8125 0 
z
" id="DejaVuSans-66"/>
       <path d="M 30.609375 48.390625 
Q 23.390625 48.390625 19.1875 42.75 
Q 14.984375 37.109375 14.984375 27.296875 
Q 14.984375 17.484375 19.15625 11.84375 
Q 23.34375 6.203125 30.609375 6.203125 
Q 37.796875 6.203125 41.984375 11.859375 
Q 46.1875 17.53125 46.1875 27.296875 
Q 46.1875 37.015625 41.984375 42.703125 
Q 37.796875 48.390625 30.609375 48.390625 
z
M 30.609375 56 
Q 42.328125 56 49.015625 48.375 
Q 55.71875 40.765625 55.71875 27.296875 
Q 55.71875 13.875 49.015625 6.21875 
Q 42.328125 -1.421875 30.609375 -1.421875 
Q 18.84375 -1.421875 12.171875 6.21875 
Q 5.515625 13.875 5.515625 27.296875 
Q 5.515625 40.765625 12.171875 48.375 
Q 18.84375 56 30.609375 56 
z
" id="DejaVuSans-111"/>
       <path d="M 9.421875 54.6875 
L 18.40625 54.6875 
L 18.40625 0 
L 9.421875 0 
z
M 9.421875 75.984375 
L 18.40625 75.984375 
L 18.40625 64.59375 
L 9.421875 64.59375 
z
" id="DejaVuSans-105"/>
       <path d="M 9.421875 75.984375 
L 18.40625 75.984375 
L 18.40625 0 
L 9.421875 0 
z
" id="DejaVuSans-108"/>
       <path d="M 54.890625 33.015625 
L 54.890625 0 
L 45.90625 0 
L 45.90625 32.71875 
Q 45.90625 40.484375 42.875 44.328125 
Q 39.84375 48.1875 33.796875 48.1875 
Q 26.515625 48.1875 22.3125 43.546875 
Q 18.109375 38.921875 18.109375 30.90625 
L 18.109375 0 
L 9.078125 0 
L 9.078125 54.6875 
L 18.109375 54.6875 
L 18.109375 46.1875 
Q 21.34375 51.125 25.703125 53.5625 
Q 30.078125 56 35.796875 56 
Q 45.21875 56 50.046875 50.171875 
Q 54.890625 44.34375 54.890625 33.015625 
z
" id="DejaVuSans-110"/>
       <path d="M 45.40625 27.984375 
Q 45.40625 37.75 41.375 43.109375 
Q 37.359375 48.484375 30.078125 48.484375 
Q 22.859375 48.484375 18.828125 43.109375 
Q 14.796875 37.75 14.796875 27.984375 
Q 14.796875 18.265625 18.828125 12.890625 
Q 22.859375 7.515625 30.078125 7.515625 
Q 37.359375 7.515625 41.375 12.890625 
Q 45.40625 18.265625 45.40625 27.984375 
z
M 54.390625 6.78125 
Q 54.390625 -7.171875 48.1875 -13.984375 
Q 42 -20.796875 29.203125 -20.796875 
Q 24.46875 -20.796875 20.265625 -20.09375 
Q 16.0625 -19.390625 12.109375 -17.921875 
L 12.109375 -9.1875 
Q 16.0625 -11.328125 19.921875 -12.34375 
Q 23.78125 -13.375 27.78125 -13.375 
Q 36.625 -13.375 41.015625 -8.765625 
Q 45.40625 -4.15625 45.40625 5.171875 
L 45.40625 9.625 
Q 42.625 4.78125 38.28125 2.390625 
Q 33.9375 0 27.875 0 
Q 17.828125 0 11.671875 7.65625 
Q 5.515625 15.328125 5.515625 27.984375 
Q 5.515625 40.671875 11.671875 48.328125 
Q 17.828125 56 27.875 56 
Q 33.9375 56 38.28125 53.609375 
Q 42.625 51.21875 45.40625 46.390625 
L 45.40625 54.6875 
L 54.390625 54.6875 
z
" id="DejaVuSans-103"/>
       <path d="M 4.890625 31.390625 
L 31.203125 31.390625 
L 31.203125 23.390625 
L 4.890625 23.390625 
z
" id="DejaVuSans-45"/>
       <path d="M 19.1875 8.296875 
L 53.609375 8.296875 
L 53.609375 0 
L 7.328125 0 
L 7.328125 8.296875 
Q 12.9375 14.109375 22.625 23.890625 
Q 32.328125 33.6875 34.8125 36.53125 
Q 39.546875 41.84375 41.421875 45.53125 
Q 43.3125 49.21875 43.3125 52.78125 
Q 43.3125 58.59375 39.234375 62.25 
Q 35.15625 65.921875 28.609375 65.921875 
Q 23.96875 65.921875 18.8125 64.3125 
Q 13.671875 62.703125 7.8125 59.421875 
L 7.8125 69.390625 
Q 13.765625 71.78125 18.9375 73 
Q 24.125 74.21875 28.421875 74.21875 
Q 39.75 74.21875 46.484375 68.546875 
Q 53.21875 62.890625 53.21875 53.421875 
Q 53.21875 48.921875 51.53125 44.890625 
Q 49.859375 40.875 45.40625 35.40625 
Q 44.1875 33.984375 37.640625 27.21875 
Q 31.109375 20.453125 19.1875 8.296875 
z
" id="DejaVuSans-50"/>
       <path d="M 52 44.1875 
Q 55.375 50.25 60.0625 53.125 
Q 64.75 56 71.09375 56 
Q 79.640625 56 84.28125 50.015625 
Q 88.921875 44.046875 88.921875 33.015625 
L 88.921875 0 
L 79.890625 0 
L 79.890625 32.71875 
Q 79.890625 40.578125 77.09375 44.375 
Q 74.3125 48.1875 68.609375 48.1875 
Q 61.625 48.1875 57.5625 43.546875 
Q 53.515625 38.921875 53.515625 30.90625 
L 53.515625 0 
L 44.484375 0 
L 44.484375 32.71875 
Q 44.484375 40.625 41.703125 44.40625 
Q 38.921875 48.1875 33.109375 48.1875 
Q 26.21875 48.1875 22.15625 43.53125 
Q 18.109375 38.875 18.109375 30.90625 
L 18.109375 0 
L 9.078125 0 
L 9.078125 54.6875 
L 18.109375 54.6875 
L 18.109375 46.1875 
Q 21.1875 51.21875 25.484375 53.609375 
Q 29.78125 56 35.6875 56 
Q 41.65625 56 45.828125 52.96875 
Q 50 49.953125 52 44.1875 
z
" id="DejaVuSans-109"/>
      </defs>
      <g style="fill:#808080;" transform="translate(125.195391 395.858281)scale(0.11 -0.11)">
       <use xlink:href="#DejaVuSans-66"/>
       <use x="68.603516" xlink:href="#DejaVuSans-111"/>
       <use x="129.785156" xlink:href="#DejaVuSans-105"/>
       <use x="157.568359" xlink:href="#DejaVuSans-108"/>
       <use x="185.351562" xlink:href="#DejaVuSans-105"/>
       <use x="213.134766" xlink:href="#DejaVuSans-110"/>
       <use x="276.513672" xlink:href="#DejaVuSans-103"/>
       <use x="339.990234" xlink:href="#DejaVuSans-45"/>
       <use x="376.074219" xlink:href="#DejaVuSans-50"/>
       <use x="439.697266" xlink:href="#DejaVuSans-109"/>
       <use x="537.109375" xlink:href="#DejaVuSans-105"/>
       <use x="564.892578" xlink:href="#DejaVuSans-110"/>
      </g>
     </g>
    </g>
    <g id="xtick_2">
     <g id="line2d_2">
      <path clip-path="url(#p611ab7c9fa)" d="M 299.25 378 
L 299.25 51.84 
" style="fill:none;stroke:#cccccc;stroke-dasharray:3.7,1.6;stroke-dashoffset:0;stroke-opacity:0.5;"/>
     </g>
     <g id="text_2">
      <!-- Boiling-5min -->
      <defs>
       <path d="M 10.796875 72.90625 
L 49.515625 72.90625 
L 49.515625 64.59375 
L 19.828125 64.59375 
L 19.828125 46.734375 
Q 21.96875 47.46875 24.109375 47.828125 
Q 26.265625 48.1875 28.421875 48.1875 
Q 40.625 48.1875 47.75 41.5 
Q 54.890625 34.8125 54.890625 23.390625 
Q 54.890625 11.625 47.5625 5.09375 
Q 40.234375 -1.421875 26.90625 -1.421875 
Q 22.3125 -1.421875 17.546875 -0.640625 
Q 12.796875 0.140625 7.71875 1.703125 
L 7.71875 11.625 
Q 12.109375 9.234375 16.796875 8.0625 
Q 21.484375 6.890625 26.703125 6.890625 
Q 35.15625 6.890625 40.078125 11.328125 
Q 45.015625 15.765625 45.015625 23.390625 
Q 45.015625 31 40.078125 35.4375 
Q 35.15625 39.890625 26.703125 39.890625 
Q 22.75 39.890625 18.8125 39.015625 
Q 14.890625 38.140625 10.796875 36.28125 
z
" id="DejaVuSans-53"/>
      </defs>
      <g style="fill:#808080;" transform="translate(264.695391 395.858281)scale(0.11 -0.11)">
       <use xlink:href="#DejaVuSans-66"/>
       <use x="68.603516" xlink:href="#DejaVuSans-111"/>
       <use x="129.785156" xlink:href="#DejaVuSans-105"/>
       <use x="157.568359" xlink:href="#DejaVuSans-108"/>
       <use x="185.351562" xlink:href="#DejaVuSans-105"/>
       <use x="213.134766" xlink:href="#DejaVuSans-110"/>
       <use x="276.513672" xlink:href="#DejaVuSans-103"/>
       <use x="339.990234" xlink:href="#DejaVuSans-45"/>
       <use x="376.074219" xlink:href="#DejaVuSans-53"/>
       <use x="439.697266" xlink:href="#DejaVuSans-109"/>
       <use x="537.109375" xlink:href="#DejaVuSans-105"/>
       <use x="564.892578" xlink:href="#DejaVuSans-110"/>
      </g>
     </g>
    </g>
    <g id="xtick_3">
     <g id="line2d_3">
      <path clip-path="url(#p611ab7c9fa)" d="M 438.75 378 
L 438.75 51.84 
" style="fill:none;stroke:#cccccc;stroke-dasharray:3.7,1.6;stroke-dashoffset:0;stroke-opacity:0.5;"/>
     </g>
     <g id="text_3">
      <!-- Boiling-15min -->
      <defs>
       <path d="M 12.40625 8.296875 
L 28.515625 8.296875 
L 28.515625 63.921875 
L 10.984375 60.40625 
L 10.984375 69.390625 
L 28.421875 72.90625 
L 38.28125 72.90625 
L 38.28125 8.296875 
L 54.390625 8.296875 
L 54.390625 0 
L 12.40625 0 
z
" id="DejaVuSans-49"/>
      </defs>
      <g style="fill:#808080;" transform="translate(400.696016 395.858281)scale(0.11 -0.11)">
       <use xlink:href="#DejaVuSans-66"/>
       <use x="68.603516" xlink:href="#DejaVuSans-111"/>
       <use x="129.785156" xlink:href="#DejaVuSans-105"/>
       <use x="157.568359" xlink:href="#DejaVuSans-108"/>
       <use x="185.351562" xlink:href="#DejaVuSans-105"/>
       <use x="213.134766" xlink:href="#DejaVuSans-110"/>
       <use x="276.513672" xlink:href="#DejaVuSans-103"/>
       <use x="339.990234" xlink:href="#DejaVuSans-45"/>
       <use x="376.074219" xlink:href="#DejaVuSans-49"/>
       <use x="439.697266" xlink:href="#DejaVuSans-53"/>
       <use x="503.320312" xlink:href="#DejaVuSans-109"/>
       <use x="600.732422" xlink:href="#DejaVuSans-105"/>
       <use x="628.515625" xlink:href="#DejaVuSans-110"/>
      </g>
     </g>
    </g>
    <g id="xtick_4">
     <g id="line2d_4">
      <path clip-path="url(#p611ab7c9fa)" d="M 578.25 378 
L 578.25 51.84 
" style="fill:none;stroke:#cccccc;stroke-dasharray:3.7,1.6;stroke-dashoffset:0;stroke-opacity:0.5;"/>
     </g>
     <g id="text_4">
      <!-- Pressure-3min -->
      <defs>
       <path d="M 19.671875 64.796875 
L 19.671875 37.40625 
L 32.078125 37.40625 
Q 38.96875 37.40625 42.71875 40.96875 
Q 46.484375 44.53125 46.484375 51.125 
Q 46.484375 57.671875 42.71875 61.234375 
Q 38.96875 64.796875 32.078125 64.796875 
z
M 9.8125 72.90625 
L 32.078125 72.90625 
Q 44.34375 72.90625 50.609375 67.359375 
Q 56.890625 61.8125 56.890625 51.125 
Q 56.890625 40.328125 50.609375 34.8125 
Q 44.34375 29.296875 32.078125 29.296875 
L 19.671875 29.296875 
L 19.671875 0 
L 9.8125 0 
z
" id="DejaVuSans-80"/>
       <path d="M 41.109375 46.296875 
Q 39.59375 47.171875 37.8125 47.578125 
Q 36.03125 48 33.890625 48 
Q 26.265625 48 22.1875 43.046875 
Q 18.109375 38.09375 18.109375 28.8125 
L 18.109375 0 
L 9.078125 0 
L 9.078125 54.6875 
L 18.109375 54.6875 
L 18.109375 46.1875 
Q 20.953125 51.171875 25.484375 53.578125 
Q 30.03125 56 36.53125 56 
Q 37.453125 56 38.578125 55.875 
Q 39.703125 55.765625 41.0625 55.515625 
z
" id="DejaVuSans-114"/>
       <path d="M 56.203125 29.59375 
L 56.203125 25.203125 
L 14.890625 25.203125 
Q 15.484375 15.921875 20.484375 11.0625 
Q 25.484375 6.203125 34.421875 6.203125 
Q 39.59375 6.203125 44.453125 7.46875 
Q 49.3125 8.734375 54.109375 11.28125 
L 54.109375 2.78125 
Q 49.265625 0.734375 44.1875 -0.34375 
Q 39.109375 -1.421875 33.890625 -1.421875 
Q 20.796875 -1.421875 13.15625 6.1875 
Q 5.515625 13.8125 5.515625 26.8125 
Q 5.515625 40.234375 12.765625 48.109375 
Q 20.015625 56 32.328125 56 
Q 43.359375 56 49.78125 48.890625 
Q 56.203125 41.796875 56.203125 29.59375 
z
M 47.21875 32.234375 
Q 47.125 39.59375 43.09375 43.984375 
Q 39.0625 48.390625 32.421875 48.390625 
Q 24.90625 48.390625 20.390625 44.140625 
Q 15.875 39.890625 15.1875 32.171875 
z
" id="DejaVuSans-101"/>
       <path d="M 44.28125 53.078125 
L 44.28125 44.578125 
Q 40.484375 46.53125 36.375 47.5 
Q 32.28125 48.484375 27.875 48.484375 
Q 21.1875 48.484375 17.84375 46.4375 
Q 14.5 44.390625 14.5 40.28125 
Q 14.5 37.15625 16.890625 35.375 
Q 19.28125 33.59375 26.515625 31.984375 
L 29.59375 31.296875 
Q 39.15625 29.25 43.1875 25.515625 
Q 47.21875 21.78125 47.21875 15.09375 
Q 47.21875 7.46875 41.1875 3.015625 
Q 35.15625 -1.421875 24.609375 -1.421875 
Q 20.21875 -1.421875 15.453125 -0.5625 
Q 10.6875 0.296875 5.421875 2 
L 5.421875 11.28125 
Q 10.40625 8.6875 15.234375 7.390625 
Q 20.0625 6.109375 24.8125 6.109375 
Q 31.15625 6.109375 34.5625 8.28125 
Q 37.984375 10.453125 37.984375 14.40625 
Q 37.984375 18.0625 35.515625 20.015625 
Q 33.0625 21.96875 24.703125 23.78125 
L 21.578125 24.515625 
Q 13.234375 26.265625 9.515625 29.90625 
Q 5.8125 33.546875 5.8125 39.890625 
Q 5.8125 47.609375 11.28125 51.796875 
Q 16.75 56 26.8125 56 
Q 31.78125 56 36.171875 55.265625 
Q 40.578125 54.546875 44.28125 53.078125 
z
" id="DejaVuSans-115"/>
       <path d="M 8.5 21.578125 
L 8.5 54.6875 
L 17.484375 54.6875 
L 17.484375 21.921875 
Q 17.484375 14.15625 20.5 10.265625 
Q 23.53125 6.390625 29.59375 6.390625 
Q 36.859375 6.390625 41.078125 11.03125 
Q 45.3125 15.671875 45.3125 23.6875 
L 45.3125 54.6875 
L 54.296875 54.6875 
L 54.296875 0 
L 45.3125 0 
L 45.3125 8.40625 
Q 42.046875 3.421875 37.71875 1 
Q 33.40625 -1.421875 27.6875 -1.421875 
Q 18.265625 -1.421875 13.375 4.4375 
Q 8.5 10.296875 8.5 21.578125 
z
M 31.109375 56 
z
" id="DejaVuSans-117"/>
       <path d="M 40.578125 39.3125 
Q 47.65625 37.796875 51.625 33 
Q 55.609375 28.21875 55.609375 21.1875 
Q 55.609375 10.40625 48.1875 4.484375 
Q 40.765625 -1.421875 27.09375 -1.421875 
Q 22.515625 -1.421875 17.65625 -0.515625 
Q 12.796875 0.390625 7.625 2.203125 
L 7.625 11.71875 
Q 11.71875 9.328125 16.59375 8.109375 
Q 21.484375 6.890625 26.8125 6.890625 
Q 36.078125 6.890625 40.9375 10.546875 
Q 45.796875 14.203125 45.796875 21.1875 
Q 45.796875 27.640625 41.28125 31.265625 
Q 36.765625 34.90625 28.71875 34.90625 
L 20.21875 34.90625 
L 20.21875 43.015625 
L 29.109375 43.015625 
Q 36.375 43.015625 40.234375 45.921875 
Q 44.09375 48.828125 44.09375 54.296875 
Q 44.09375 59.90625 40.109375 62.90625 
Q 36.140625 65.921875 28.71875 65.921875 
Q 24.65625 65.921875 20.015625 65.03125 
Q 15.375 64.15625 9.8125 62.3125 
L 9.8125 71.09375 
Q 15.4375 72.65625 20.34375 73.4375 
Q 25.25 74.21875 29.59375 74.21875 
Q 40.828125 74.21875 47.359375 69.109375 
Q 53.90625 64.015625 53.90625 55.328125 
Q 53.90625 49.265625 50.4375 45.09375 
Q 46.96875 40.921875 40.578125 39.3125 
z
" id="DejaVuSans-51"/>
      </defs>
      <g style="fill:#808080;" transform="translate(538.916406 395.858281)scale(0.11 -0.11)">
       <use xlink:href="#DejaVuSans-80"/>
       <use x="58.552734" xlink:href="#DejaVuSans-114"/>
       <use x="97.416016" xlink:href="#DejaVuSans-101"/>
       <use x="158.939453" xlink:href="#DejaVuSans-115"/>
       <use x="211.039062" xlink:href="#DejaVuSans-115"/>
       <use x="263.138672" xlink:href="#DejaVuSans-117"/>
       <use x="326.517578" xlink:href="#DejaVuSans-114"/>
       <use x="365.380859" xlink:href="#DejaVuSans-101"/>
       <use x="426.904297" xlink:href="#DejaVuSans-45"/>
       <use x="462.988281" xlink:href="#DejaVuSans-51"/>
       <use x="526.611328" xlink:href="#DejaVuSans-109"/>
       <use x="624.023438" xlink:href="#DejaVuSans-105"/>
       <use x="651.806641" xlink:href="#DejaVuSans-110"/>
      </g>
     </g>
    </g>
    <g id="text_5">
     <!-- Staining Protocol -->
     <defs>
      <path d="M 53.515625 70.515625 
L 53.515625 60.890625 
Q 47.90625 63.578125 42.921875 64.890625 
Q 37.9375 66.21875 33.296875 66.21875 
Q 25.25 66.21875 20.875 63.09375 
Q 16.5 59.96875 16.5 54.203125 
Q 16.5 49.359375 19.40625 46.890625 
Q 22.3125 44.4375 30.421875 42.921875 
L 36.375 41.703125 
Q 47.40625 39.59375 52.65625 34.296875 
Q 57.90625 29 57.90625 20.125 
Q 57.90625 9.515625 50.796875 4.046875 
Q 43.703125 -1.421875 29.984375 -1.421875 
Q 24.8125 -1.421875 18.96875 -0.25 
Q 13.140625 0.921875 6.890625 3.21875 
L 6.890625 13.375 
Q 12.890625 10.015625 18.65625 8.296875 
Q 24.421875 6.59375 29.984375 6.59375 
Q 38.421875 6.59375 43.015625 9.90625 
Q 47.609375 13.234375 47.609375 19.390625 
Q 47.609375 24.75 44.3125 27.78125 
Q 41.015625 30.8125 33.5 32.328125 
L 27.484375 33.5 
Q 16.453125 35.6875 11.515625 40.375 
Q 6.59375 45.0625 6.59375 53.421875 
Q 6.59375 63.09375 13.40625 68.65625 
Q 20.21875 74.21875 32.171875 74.21875 
Q 37.3125 74.21875 42.625 73.28125 
Q 47.953125 72.359375 53.515625 70.515625 
z
" id="DejaVuSans-83"/>
      <path d="M 18.3125 70.21875 
L 18.3125 54.6875 
L 36.8125 54.6875 
L 36.8125 47.703125 
L 18.3125 47.703125 
L 18.3125 18.015625 
Q 18.3125 11.328125 20.140625 9.421875 
Q 21.96875 7.515625 27.59375 7.515625 
L 36.8125 7.515625 
L 36.8125 0 
L 27.59375 0 
Q 17.1875 0 13.234375 3.875 
Q 9.28125 7.765625 9.28125 18.015625 
L 9.28125 47.703125 
L 2.6875 47.703125 
L 2.6875 54.6875 
L 9.28125 54.6875 
L 9.28125 70.21875 
z
" id="DejaVuSans-116"/>
      <path d="M 34.28125 27.484375 
Q 23.390625 27.484375 19.1875 25 
Q 14.984375 22.515625 14.984375 16.5 
Q 14.984375 11.71875 18.140625 8.90625 
Q 21.296875 6.109375 26.703125 6.109375 
Q 34.1875 6.109375 38.703125 11.40625 
Q 43.21875 16.703125 43.21875 25.484375 
L 43.21875 27.484375 
z
M 52.203125 31.203125 
L 52.203125 0 
L 43.21875 0 
L 43.21875 8.296875 
Q 40.140625 3.328125 35.546875 0.953125 
Q 30.953125 -1.421875 24.3125 -1.421875 
Q 15.921875 -1.421875 10.953125 3.296875 
Q 6 8.015625 6 15.921875 
Q 6 25.140625 12.171875 29.828125 
Q 18.359375 34.515625 30.609375 34.515625 
L 43.21875 34.515625 
L 43.21875 35.40625 
Q 43.21875 41.609375 39.140625 45 
Q 35.0625 48.390625 27.6875 48.390625 
Q 23 48.390625 18.546875 47.265625 
Q 14.109375 46.140625 10.015625 43.890625 
L 10.015625 52.203125 
Q 14.9375 54.109375 19.578125 55.046875 
Q 24.21875 56 28.609375 56 
Q 40.484375 56 46.34375 49.84375 
Q 52.203125 43.703125 52.203125 31.203125 
z
" id="DejaVuSans-97"/>
      <path id="DejaVuSans-32"/>
      <path d="M 48.78125 52.59375 
L 48.78125 44.1875 
Q 44.96875 46.296875 41.140625 47.34375 
Q 37.3125 48.390625 33.40625 48.390625 
Q 24.65625 48.390625 19.8125 42.84375 
Q 14.984375 37.3125 14.984375 27.296875 
Q 14.984375 17.28125 19.8125 11.734375 
Q 24.65625 6.203125 33.40625 6.203125 
Q 37.3125 6.203125 41.140625 7.25 
Q 44.96875 8.296875 48.78125 10.40625 
L 48.78125 2.09375 
Q 45.015625 0.34375 40.984375 -0.53125 
Q 36.96875 -1.421875 32.421875 -1.421875 
Q 20.0625 -1.421875 12.78125 6.34375 
Q 5.515625 14.109375 5.515625 27.296875 
Q 5.515625 40.671875 12.859375 48.328125 
Q 20.21875 56 33.015625 56 
Q 37.15625 56 41.109375 55.140625 
Q 45.0625 54.296875 48.78125 52.59375 
z
" id="DejaVuSans-99"/>
     </defs>
     <g style="fill:#808080;" transform="translate(318.330938 411.264063)scale(0.12 -0.12)">
      <use xlink:href="#DejaVuSans-83"/>
      <use x="63.476562" xlink:href="#DejaVuSans-116"/>
      <use x="102.685547" xlink:href="#DejaVuSans-97"/>
      <use x="163.964844" xlink:href="#DejaVuSans-105"/>
      <use x="191.748047" xlink:href="#DejaVuSans-110"/>
      <use x="255.126953" xlink:href="#DejaVuSans-105"/>
      <use x="282.910156" xlink:href="#DejaVuSans-110"/>
      <use x="346.289062" xlink:href="#DejaVuSans-103"/>
      <use x="409.765625" xlink:href="#DejaVuSans-32"/>
      <use x="441.552734" xlink:href="#DejaVuSans-80"/>
      <use x="500.105469" xlink:href="#DejaVuSans-114"/>
      <use x="538.96875" xlink:href="#DejaVuSans-111"/>
      <use x="600.150391" xlink:href="#DejaVuSans-116"/>
      <use x="639.359375" xlink:href="#DejaVuSans-111"/>
      <use x="700.541016" xlink:href="#DejaVuSans-99"/>
      <use x="755.521484" xlink:href="#DejaVuSans-111"/>
      <use x="816.703125" xlink:href="#DejaVuSans-108"/>
     </g>
    </g>
   </g>
   <g id="matplotlib.axis_2">
    <g id="ytick_1">
     <g id="line2d_5">
      <path d="M 90 358.796533 
L 648 358.796533 
" style="fill:none;stroke:#cccccc;stroke-linecap:round;stroke-opacity:0.5;"/>
     </g>
     <g id="text_6">
      <!-- −0.10 -->
      <defs>
       <path d="M 10.59375 35.5 
L 73.1875 35.5 
L 73.1875 27.203125 
L 10.59375 27.203125 
z
" id="DejaVuSans-8722"/>
       <path d="M 31.78125 66.40625 
Q 24.171875 66.40625 20.328125 58.90625 
Q 16.5 51.421875 16.5 36.375 
Q 16.5 21.390625 20.328125 13.890625 
Q 24.171875 6.390625 31.78125 6.390625 
Q 39.453125 6.390625 43.28125 13.890625 
Q 47.125 21.390625 47.125 36.375 
Q 47.125 51.421875 43.28125 58.90625 
Q 39.453125 66.40625 31.78125 66.40625 
z
M 31.78125 74.21875 
Q 44.046875 74.21875 50.515625 64.515625 
Q 56.984375 54.828125 56.984375 36.375 
Q 56.984375 17.96875 50.515625 8.265625 
Q 44.046875 -1.421875 31.78125 -1.421875 
Q 19.53125 -1.421875 13.0625 8.265625 
Q 6.59375 17.96875 6.59375 36.375 
Q 6.59375 54.828125 13.0625 64.515625 
Q 19.53125 74.21875 31.78125 74.21875 
z
" id="DejaVuSans-48"/>
       <path d="M 10.6875 12.40625 
L 21 12.40625 
L 21 0 
L 10.6875 0 
z
" id="DejaVuSans-46"/>
      </defs>
      <g style="fill:#808080;" transform="translate(46.790156 362.975673)scale(0.11 -0.11)">
       <use xlink:href="#DejaVuSans-8722"/>
       <use x="83.789062" xlink:href="#DejaVuSans-48"/>
       <use x="147.412109" xlink:href="#DejaVuSans-46"/>
       <use x="179.199219" xlink:href="#DejaVuSans-49"/>
       <use x="242.822266" xlink:href="#DejaVuSans-48"/>
      </g>
     </g>
    </g>
    <g id="ytick_2">
     <g id="line2d_6">
      <path d="M 90 314.88312 
L 648 314.88312 
" style="fill:none;stroke:#cccccc;stroke-linecap:round;stroke-opacity:0.5;"/>
     </g>
     <g id="text_7">
      <!-- −0.05 -->
      <g style="fill:#808080;" transform="translate(46.790156 319.062261)scale(0.11 -0.11)">
       <use xlink:href="#DejaVuSans-8722"/>
       <use x="83.789062" xlink:href="#DejaVuSans-48"/>
       <use x="147.412109" xlink:href="#DejaVuSans-46"/>
       <use x="179.199219" xlink:href="#DejaVuSans-48"/>
       <use x="242.822266" xlink:href="#DejaVuSans-53"/>
      </g>
     </g>
    </g>
    <g id="ytick_3">
     <g id="line2d_7">
      <path d="M 90 270.969707 
L 648 270.969707 
" style="fill:none;stroke:#cccccc;stroke-linecap:round;stroke-opacity:0.5;"/>
     </g>
     <g id="text_8">
      <!-- 0.00 -->
      <g style="fill:#808080;" transform="translate(56.007812 275.148848)scale(0.11 -0.11)">
       <use xlink:href="#DejaVuSans-48"/>
       <use x="63.623047" xlink:href="#DejaVuSans-46"/>
       <use x="95.410156" xlink:href="#DejaVuSans-48"/>
       <use x="159.033203" xlink:href="#DejaVuSans-48"/>
      </g>
     </g>
    </g>
    <g id="ytick_4">
     <g id="line2d_8">
      <path d="M 90 227.056295 
L 648 227.056295 
" style="fill:none;stroke:#cccccc;stroke-linecap:round;stroke-opacity:0.5;"/>
     </g>
     <g id="text_9">
      <!-- 0.05 -->
      <g style="fill:#808080;" transform="translate(56.007812 231.235435)scale(0.11 -0.11)">
       <use xlink:href="#DejaVuSans-48"/>
       <use x="63.623047" xlink:href="#DejaVuSans-46"/>
       <use x="95.410156" xlink:href="#DejaVuSans-48"/>
       <use x="159.033203" xlink:href="#DejaVuSans-53"/>
      </g>
     </g>
    </g>
    <g id="ytick_5">
     <g id="line2d_9">
      <path d="M 90 183.142882 
L 648 183.142882 
" style="fill:none;stroke:#cccccc;stroke-linecap:round;stroke-opacity:0.5;"/>
     </g>
     <g id="text_10">
      <!-- 0.10 -->
      <g style="fill:#808080;" transform="translate(56.007812 187.322022)scale(0.11 -0.11)">
       <use xlink:href="#DejaVuSans-48"/>
       <use x="63.623047" xlink:href="#DejaVuSans-46"/>
       <use x="95.410156" xlink:href="#DejaVuSans-49"/>
       <use x="159.033203" xlink:href="#DejaVuSans-48"/>
      </g>
     </g>
    </g>
    <g id="ytick_6">
     <g id="line2d_10">
      <path d="M 90 139.229469 
L 648 139.229469 
" style="fill:none;stroke:#cccccc;stroke-linecap:round;stroke-opacity:0.5;"/>
     </g>
     <g id="text_11">
      <!-- 0.15 -->
      <g style="fill:#808080;" transform="translate(56.007812 143.40861)scale(0.11 -0.11)">
       <use xlink:href="#DejaVuSans-48"/>
       <use x="63.623047" xlink:href="#DejaVuSans-46"/>
       <use x="95.410156" xlink:href="#DejaVuSans-49"/>
       <use x="159.033203" xlink:href="#DejaVuSans-53"/>
      </g>
     </g>
    </g>
    <g id="ytick_7">
     <g id="line2d_11">
      <path d="M 90 95.316056 
L 648 95.316056 
" style="fill:none;stroke:#cccccc;stroke-linecap:round;stroke-opacity:0.5;"/>
     </g>
     <g id="text_12">
      <!-- 0.20 -->
      <g style="fill:#808080;" transform="translate(56.007812 99.495197)scale(0.11 -0.11)">
       <use xlink:href="#DejaVuSans-48"/>
       <use x="63.623047" xlink:href="#DejaVuSans-46"/>
       <use x="95.410156" xlink:href="#DejaVuSans-50"/>
       <use x="159.033203" xlink:href="#DejaVuSans-48"/>
      </g>
     </g>
    </g>
    <g id="text_13">
     <!-- Brown Intensity (25% top - 25% bottom) -->
     <defs>
      <path d="M 4.203125 54.6875 
L 13.1875 54.6875 
L 24.421875 12.015625 
L 35.59375 54.6875 
L 46.1875 54.6875 
L 57.421875 12.015625 
L 68.609375 54.6875 
L 77.59375 54.6875 
L 63.28125 0 
L 52.6875 0 
L 40.921875 44.828125 
L 29.109375 0 
L 18.5 0 
z
" id="DejaVuSans-119"/>
      <path d="M 9.8125 72.90625 
L 19.671875 72.90625 
L 19.671875 0 
L 9.8125 0 
z
" id="DejaVuSans-73"/>
      <path d="M 32.171875 -5.078125 
Q 28.375 -14.84375 24.75 -17.8125 
Q 21.140625 -20.796875 15.09375 -20.796875 
L 7.90625 -20.796875 
L 7.90625 -13.28125 
L 13.1875 -13.28125 
Q 16.890625 -13.28125 18.9375 -11.515625 
Q 21 -9.765625 23.484375 -3.21875 
L 25.09375 0.875 
L 2.984375 54.6875 
L 12.5 54.6875 
L 29.59375 11.921875 
L 46.6875 54.6875 
L 56.203125 54.6875 
z
" id="DejaVuSans-121"/>
      <path d="M 31 75.875 
Q 24.46875 64.65625 21.28125 53.65625 
Q 18.109375 42.671875 18.109375 31.390625 
Q 18.109375 20.125 21.3125 9.0625 
Q 24.515625 -2 31 -13.1875 
L 23.1875 -13.1875 
Q 15.875 -1.703125 12.234375 9.375 
Q 8.59375 20.453125 8.59375 31.390625 
Q 8.59375 42.28125 12.203125 53.3125 
Q 15.828125 64.359375 23.1875 75.875 
z
" id="DejaVuSans-40"/>
      <path d="M 72.703125 32.078125 
Q 68.453125 32.078125 66.03125 28.46875 
Q 63.625 24.859375 63.625 18.40625 
Q 63.625 12.0625 66.03125 8.421875 
Q 68.453125 4.78125 72.703125 4.78125 
Q 76.859375 4.78125 79.265625 8.421875 
Q 81.6875 12.0625 81.6875 18.40625 
Q 81.6875 24.8125 79.265625 28.4375 
Q 76.859375 32.078125 72.703125 32.078125 
z
M 72.703125 38.28125 
Q 80.421875 38.28125 84.953125 32.90625 
Q 89.5 27.546875 89.5 18.40625 
Q 89.5 9.28125 84.9375 3.921875 
Q 80.375 -1.421875 72.703125 -1.421875 
Q 64.890625 -1.421875 60.34375 3.921875 
Q 55.8125 9.28125 55.8125 18.40625 
Q 55.8125 27.59375 60.375 32.9375 
Q 64.9375 38.28125 72.703125 38.28125 
z
M 22.3125 68.015625 
Q 18.109375 68.015625 15.6875 64.375 
Q 13.28125 60.75 13.28125 54.390625 
Q 13.28125 47.953125 15.671875 44.328125 
Q 18.0625 40.71875 22.3125 40.71875 
Q 26.5625 40.71875 28.96875 44.328125 
Q 31.390625 47.953125 31.390625 54.390625 
Q 31.390625 60.6875 28.953125 64.34375 
Q 26.515625 68.015625 22.3125 68.015625 
z
M 66.40625 74.21875 
L 74.21875 74.21875 
L 28.609375 -1.421875 
L 20.796875 -1.421875 
z
M 22.3125 74.21875 
Q 30.03125 74.21875 34.609375 68.875 
Q 39.203125 63.53125 39.203125 54.390625 
Q 39.203125 45.171875 34.640625 39.84375 
Q 30.078125 34.515625 22.3125 34.515625 
Q 14.546875 34.515625 10.03125 39.859375 
Q 5.515625 45.21875 5.515625 54.390625 
Q 5.515625 63.484375 10.046875 68.84375 
Q 14.59375 74.21875 22.3125 74.21875 
z
" id="DejaVuSans-37"/>
      <path d="M 18.109375 8.203125 
L 18.109375 -20.796875 
L 9.078125 -20.796875 
L 9.078125 54.6875 
L 18.109375 54.6875 
L 18.109375 46.390625 
Q 20.953125 51.265625 25.265625 53.625 
Q 29.59375 56 35.59375 56 
Q 45.5625 56 51.78125 48.09375 
Q 58.015625 40.1875 58.015625 27.296875 
Q 58.015625 14.40625 51.78125 6.484375 
Q 45.5625 -1.421875 35.59375 -1.421875 
Q 29.59375 -1.421875 25.265625 0.953125 
Q 20.953125 3.328125 18.109375 8.203125 
z
M 48.6875 27.296875 
Q 48.6875 37.203125 44.609375 42.84375 
Q 40.53125 48.484375 33.40625 48.484375 
Q 26.265625 48.484375 22.1875 42.84375 
Q 18.109375 37.203125 18.109375 27.296875 
Q 18.109375 17.390625 22.1875 11.75 
Q 26.265625 6.109375 33.40625 6.109375 
Q 40.53125 6.109375 44.609375 11.75 
Q 48.6875 17.390625 48.6875 27.296875 
z
" id="DejaVuSans-112"/>
      <path d="M 48.6875 27.296875 
Q 48.6875 37.203125 44.609375 42.84375 
Q 40.53125 48.484375 33.40625 48.484375 
Q 26.265625 48.484375 22.1875 42.84375 
Q 18.109375 37.203125 18.109375 27.296875 
Q 18.109375 17.390625 22.1875 11.75 
Q 26.265625 6.109375 33.40625 6.109375 
Q 40.53125 6.109375 44.609375 11.75 
Q 48.6875 17.390625 48.6875 27.296875 
z
M 18.109375 46.390625 
Q 20.953125 51.265625 25.265625 53.625 
Q 29.59375 56 35.59375 56 
Q 45.5625 56 51.78125 48.09375 
Q 58.015625 40.1875 58.015625 27.296875 
Q 58.015625 14.40625 51.78125 6.484375 
Q 45.5625 -1.421875 35.59375 -1.421875 
Q 29.59375 -1.421875 25.265625 0.953125 
Q 20.953125 3.328125 18.109375 8.203125 
L 18.109375 0 
L 9.078125 0 
L 9.078125 75.984375 
L 18.109375 75.984375 
z
" id="DejaVuSans-98"/>
      <path d="M 8.015625 75.875 
L 15.828125 75.875 
Q 23.140625 64.359375 26.78125 53.3125 
Q 30.421875 42.28125 30.421875 31.390625 
Q 30.421875 20.453125 26.78125 9.375 
Q 23.140625 -1.703125 15.828125 -13.1875 
L 8.015625 -13.1875 
Q 14.5 -2 17.703125 9.0625 
Q 20.90625 20.125 20.90625 31.390625 
Q 20.90625 42.671875 17.703125 53.65625 
Q 14.5 64.65625 8.015625 75.875 
z
" id="DejaVuSans-41"/>
     </defs>
     <g style="fill:#808080;" transform="translate(40.294531 336.35625)rotate(-90)scale(0.12 -0.12)">
      <use xlink:href="#DejaVuSans-66"/>
      <use x="68.603516" xlink:href="#DejaVuSans-114"/>
      <use x="107.466797" xlink:href="#DejaVuSans-111"/>
      <use x="168.648438" xlink:href="#DejaVuSans-119"/>
      <use x="250.435547" xlink:href="#DejaVuSans-110"/>
      <use x="313.814453" xlink:href="#DejaVuSans-32"/>
      <use x="345.601562" xlink:href="#DejaVuSans-73"/>
      <use x="375.09375" xlink:href="#DejaVuSans-110"/>
      <use x="438.472656" xlink:href="#DejaVuSans-116"/>
      <use x="477.681641" xlink:href="#DejaVuSans-101"/>
      <use x="539.205078" xlink:href="#DejaVuSans-110"/>
      <use x="602.583984" xlink:href="#DejaVuSans-115"/>
      <use x="654.683594" xlink:href="#DejaVuSans-105"/>
      <use x="682.466797" xlink:href="#DejaVuSans-116"/>
      <use x="721.675781" xlink:href="#DejaVuSans-121"/>
      <use x="780.855469" xlink:href="#DejaVuSans-32"/>
      <use x="812.642578" xlink:href="#DejaVuSans-40"/>
      <use x="851.65625" xlink:href="#DejaVuSans-50"/>
      <use x="915.279297" xlink:href="#DejaVuSans-53"/>
      <use x="978.902344" xlink:href="#DejaVuSans-37"/>
      <use x="1073.921875" xlink:href="#DejaVuSans-32"/>
      <use x="1105.708984" xlink:href="#DejaVuSans-116"/>
      <use x="1144.917969" xlink:href="#DejaVuSans-111"/>
      <use x="1206.099609" xlink:href="#DejaVuSans-112"/>
      <use x="1269.576172" xlink:href="#DejaVuSans-32"/>
      <use x="1301.363281" xlink:href="#DejaVuSans-45"/>
      <use x="1337.447266" xlink:href="#DejaVuSans-32"/>
      <use x="1369.234375" xlink:href="#DejaVuSans-50"/>
      <use x="1432.857422" xlink:href="#DejaVuSans-53"/>
      <use x="1496.480469" xlink:href="#DejaVuSans-37"/>
      <use x="1591.5" xlink:href="#DejaVuSans-32"/>
      <use x="1623.287109" xlink:href="#DejaVuSans-98"/>
      <use x="1686.763672" xlink:href="#DejaVuSans-111"/>
      <use x="1747.945312" xlink:href="#DejaVuSans-116"/>
      <use x="1787.154297" xlink:href="#DejaVuSans-116"/>
      <use x="1826.363281" xlink:href="#DejaVuSans-111"/>
      <use x="1887.544922" xlink:href="#DejaVuSans-109"/>
      <use x="1984.957031" xlink:href="#DejaVuSans-41"/>
     </g>
    </g>
   </g>
   <g id="PolyCollection_1">
    <defs>
     <path d="M 161.525051 -166.64125 
L 157.974949 -166.64125 
L 157.603944 -168.508889 
L 157.171979 -170.376529 
L 156.67277 -172.244168 
L 156.100156 -174.111808 
L 155.448274 -175.979447 
L 154.71176 -177.847087 
L 153.885967 -179.714726 
L 152.967196 -181.582365 
L 151.952924 -183.450005 
L 150.842042 -185.317644 
L 149.635068 -187.185284 
L 148.334349 -189.052923 
L 146.944222 -190.920563 
L 145.471147 -192.788202 
L 143.923778 -194.655842 
L 142.312984 -196.523481 
L 140.65181 -198.391121 
L 138.955368 -200.25876 
L 137.240655 -202.1264 
L 135.526315 -203.994039 
L 133.83233 -205.861678 
L 132.179652 -207.729318 
L 130.589795 -209.596957 
L 129.084379 -211.464597 
L 127.684657 -213.332236 
L 126.411026 -215.199876 
L 125.282543 -217.067515 
L 124.316465 -218.935155 
L 123.527815 -220.802794 
L 122.929001 -222.670434 
L 122.529496 -224.538073 
L 122.335586 -226.405713 
L 122.3502 -228.273352 
L 122.572822 -230.140991 
L 122.999494 -232.008631 
L 123.622899 -233.87627 
L 124.432539 -235.74391 
L 125.414979 -237.611549 
L 126.554169 -239.479189 
L 127.83182 -241.346828 
L 129.227825 -243.214468 
L 130.720723 -245.082107 
L 132.288168 -246.949747 
L 133.907412 -248.817386 
L 135.55578 -250.685026 
L 137.211114 -252.552665 
L 138.852196 -254.420304 
L 140.459123 -256.287944 
L 142.01363 -258.155583 
L 143.499364 -260.023223 
L 144.9021 -261.890862 
L 146.209894 -263.758502 
L 147.413182 -265.626141 
L 148.504824 -267.493781 
L 149.480097 -269.36142 
L 150.336642 -271.22906 
L 151.074367 -273.096699 
L 151.69532 -274.964339 
L 152.203527 -276.831978 
L 152.604805 -278.699617 
L 152.906558 -280.567257 
L 153.117549 -282.434896 
L 153.247666 -284.302536 
L 153.307673 -286.170175 
L 153.308956 -288.037815 
L 153.263268 -289.905454 
L 153.182467 -291.773094 
L 153.07827 -293.640733 
L 152.962 -295.508373 
L 152.844362 -297.376012 
L 152.735227 -299.243652 
L 152.643444 -301.111291 
L 152.576678 -302.97893 
L 152.541285 -304.84657 
L 152.542224 -306.714209 
L 152.583006 -308.581849 
L 152.665687 -310.449488 
L 152.790904 -312.317128 
L 152.957949 -314.184767 
L 153.164882 -316.052407 
L 153.408676 -317.920046 
L 153.685383 -319.787686 
L 153.990329 -321.655325 
L 154.318309 -323.522965 
L 154.663792 -325.390604 
L 155.021119 -327.258243 
L 155.384689 -329.125883 
L 155.749128 -330.993522 
L 156.10943 -332.861162 
L 156.461079 -334.728801 
L 156.800133 -336.596441 
L 157.123286 -338.46408 
L 157.427894 -340.33172 
L 157.711982 -342.199359 
L 157.97422 -344.066999 
L 158.213883 -345.934638 
L 158.430795 -347.802277 
L 158.625258 -349.669917 
L 158.797983 -351.537556 
L 160.702017 -351.537556 
L 160.702017 -351.537556 
L 160.874742 -349.669917 
L 161.069205 -347.802277 
L 161.286117 -345.934638 
L 161.52578 -344.066999 
L 161.788018 -342.199359 
L 162.072106 -340.33172 
L 162.376714 -338.46408 
L 162.699867 -336.596441 
L 163.038921 -334.728801 
L 163.39057 -332.861162 
L 163.750872 -330.993522 
L 164.115311 -329.125883 
L 164.478881 -327.258243 
L 164.836208 -325.390604 
L 165.181691 -323.522965 
L 165.509671 -321.655325 
L 165.814617 -319.787686 
L 166.091324 -317.920046 
L 166.335118 -316.052407 
L 166.542051 -314.184767 
L 166.709096 -312.317128 
L 166.834313 -310.449488 
L 166.916994 -308.581849 
L 166.957776 -306.714209 
L 166.958715 -304.84657 
L 166.923322 -302.97893 
L 166.856556 -301.111291 
L 166.764773 -299.243652 
L 166.655638 -297.376012 
L 166.538 -295.508373 
L 166.42173 -293.640733 
L 166.317533 -291.773094 
L 166.236732 -289.905454 
L 166.191044 -288.037815 
L 166.192327 -286.170175 
L 166.252334 -284.302536 
L 166.382451 -282.434896 
L 166.593442 -280.567257 
L 166.895195 -278.699617 
L 167.296473 -276.831978 
L 167.80468 -274.964339 
L 168.425633 -273.096699 
L 169.163358 -271.22906 
L 170.019903 -269.36142 
L 170.995176 -267.493781 
L 172.086818 -265.626141 
L 173.290106 -263.758502 
L 174.5979 -261.890862 
L 176.000636 -260.023223 
L 177.48637 -258.155583 
L 179.040877 -256.287944 
L 180.647804 -254.420304 
L 182.288886 -252.552665 
L 183.94422 -250.685026 
L 185.592588 -248.817386 
L 187.211832 -246.949747 
L 188.779277 -245.082107 
L 190.272175 -243.214468 
L 191.66818 -241.346828 
L 192.945831 -239.479189 
L 194.085021 -237.611549 
L 195.067461 -235.74391 
L 195.877101 -233.87627 
L 196.500506 -232.008631 
L 196.927178 -230.140991 
L 197.1498 -228.273352 
L 197.164414 -226.405713 
L 196.970504 -224.538073 
L 196.570999 -222.670434 
L 195.972185 -220.802794 
L 195.183535 -218.935155 
L 194.217457 -217.067515 
L 193.088974 -215.199876 
L 191.815343 -213.332236 
L 190.415621 -211.464597 
L 188.910205 -209.596957 
L 187.320348 -207.729318 
L 185.66767 -205.861678 
L 183.973685 -203.994039 
L 182.259345 -202.1264 
L 180.544632 -200.25876 
L 178.84819 -198.391121 
L 177.187016 -196.523481 
L 175.576222 -194.655842 
L 174.028853 -192.788202 
L 172.555778 -190.920563 
L 171.165651 -189.052923 
L 169.864932 -187.185284 
L 168.657958 -185.317644 
L 167.547076 -183.450005 
L 166.532804 -181.582365 
L 165.614033 -179.714726 
L 164.78824 -177.847087 
L 164.051726 -175.979447 
L 163.399844 -174.111808 
L 162.82723 -172.244168 
L 162.328021 -170.376529 
L 161.896056 -168.508889 
L 161.525051 -166.64125 
z
" id="m3f885b17b6" style="stroke:#5c5c5c;stroke-width:0.5;"/>
    </defs>
    <g clip-path="url(#p611ab7c9fa)">
     <use style="fill:#4de64d;stroke:#5c5c5c;stroke-width:0.5;" x="0" xlink:href="#m3f885b17b6" y="432"/>
    </g>
   </g>
   <g id="PolyCollection_2">
    <defs>
     <path d="M 303.938226 -160.01511 
L 294.561774 -160.01511 
L 293.753549 -160.862985 
L 292.839685 -161.710861 
L 291.812822 -162.558736 
L 290.666226 -163.406611 
L 289.394028 -164.254486 
L 287.99146 -165.102361 
L 286.455096 -165.950236 
L 284.783089 -166.798112 
L 282.975396 -167.645987 
L 281.033977 -168.493862 
L 278.962972 -169.341737 
L 276.768831 -170.189612 
L 274.460405 -171.037488 
L 272.048981 -171.885363 
L 269.548263 -172.733238 
L 266.974287 -173.581113 
L 264.345278 -174.428988 
L 261.681446 -175.276863 
L 259.004718 -176.124739 
L 256.33842 -176.972614 
L 253.706908 -177.820489 
L 251.13517 -178.668364 
L 248.648384 -179.516239 
L 246.271475 -180.364115 
L 244.028658 -181.21199 
L 241.942988 -182.059865 
L 240.035932 -182.90774 
L 238.326971 -183.755615 
L 236.833237 -184.60349 
L 235.569202 -185.451366 
L 234.546423 -186.299241 
L 233.773338 -187.147116 
L 233.255134 -187.994991 
L 232.993678 -188.842866 
L 232.9875 -189.690742 
L 233.231855 -190.538617 
L 233.718829 -191.386492 
L 234.437506 -192.234367 
L 235.374183 -193.082242 
L 236.512631 -193.930117 
L 237.834393 -194.777993 
L 239.319115 -195.625868 
L 240.944905 -196.473743 
L 242.688714 -197.321618 
L 244.526734 -198.169493 
L 246.4348 -199.017369 
L 248.388804 -199.865244 
L 250.365097 -200.713119 
L 252.340893 -201.560994 
L 254.294643 -202.408869 
L 256.206398 -203.256744 
L 258.058131 -204.10462 
L 259.834031 -204.952495 
L 261.520743 -205.80037 
L 263.10756 -206.648245 
L 264.58656 -207.49612 
L 265.952671 -208.343995 
L 267.203688 -209.191871 
L 268.3402 -210.039746 
L 269.365471 -210.887621 
L 270.285244 -211.735496 
L 271.107488 -212.583371 
L 271.842091 -213.431247 
L 272.500514 -214.279122 
L 273.095399 -215.126997 
L 273.640166 -215.974872 
L 274.148591 -216.822747 
L 274.634393 -217.670622 
L 275.110835 -218.518498 
L 275.59035 -219.366373 
L 276.084212 -220.214248 
L 276.602255 -221.062123 
L 277.152647 -221.909998 
L 277.741732 -222.757874 
L 278.37393 -223.605749 
L 279.05171 -224.453624 
L 279.775625 -225.301499 
L 280.544404 -226.149374 
L 281.355102 -226.997249 
L 282.203292 -227.845125 
L 283.083291 -228.693 
L 283.988414 -229.540875 
L 284.911242 -230.38875 
L 285.843892 -231.236625 
L 286.778283 -232.084501 
L 287.70639 -232.932376 
L 288.620463 -233.780251 
L 289.51324 -234.628126 
L 290.3781 -235.476001 
L 291.209205 -236.323876 
L 292.001589 -237.171752 
L 292.751213 -238.019627 
L 293.454997 -238.867502 
L 294.110803 -239.715377 
L 294.717402 -240.563252 
L 295.274416 -241.411128 
L 295.782238 -242.259003 
L 296.241945 -243.106878 
L 296.655191 -243.954753 
L 301.844809 -243.954753 
L 301.844809 -243.954753 
L 302.258055 -243.106878 
L 302.717762 -242.259003 
L 303.225584 -241.411128 
L 303.782598 -240.563252 
L 304.389197 -239.715377 
L 305.045003 -238.867502 
L 305.748787 -238.019627 
L 306.498411 -237.171752 
L 307.290795 -236.323876 
L 308.1219 -235.476001 
L 308.98676 -234.628126 
L 309.879537 -233.780251 
L 310.79361 -232.932376 
L 311.721717 -232.084501 
L 312.656108 -231.236625 
L 313.588758 -230.38875 
L 314.511586 -229.540875 
L 315.416709 -228.693 
L 316.296708 -227.845125 
L 317.144898 -226.997249 
L 317.955596 -226.149374 
L 318.724375 -225.301499 
L 319.44829 -224.453624 
L 320.12607 -223.605749 
L 320.758268 -222.757874 
L 321.347353 -221.909998 
L 321.897745 -221.062123 
L 322.415788 -220.214248 
L 322.90965 -219.366373 
L 323.389165 -218.518498 
L 323.865607 -217.670622 
L 324.351409 -216.822747 
L 324.859834 -215.974872 
L 325.404601 -215.126997 
L 325.999486 -214.279122 
L 326.657909 -213.431247 
L 327.392512 -212.583371 
L 328.214756 -211.735496 
L 329.134529 -210.887621 
L 330.1598 -210.039746 
L 331.296312 -209.191871 
L 332.547329 -208.343995 
L 333.91344 -207.49612 
L 335.39244 -206.648245 
L 336.979257 -205.80037 
L 338.665969 -204.952495 
L 340.441869 -204.10462 
L 342.293602 -203.256744 
L 344.205357 -202.408869 
L 346.159107 -201.560994 
L 348.134903 -200.713119 
L 350.111196 -199.865244 
L 352.0652 -199.017369 
L 353.973266 -198.169493 
L 355.811286 -197.321618 
L 357.555095 -196.473743 
L 359.180885 -195.625868 
L 360.665607 -194.777993 
L 361.987369 -193.930117 
L 363.125817 -193.082242 
L 364.062494 -192.234367 
L 364.781171 -191.386492 
L 365.268145 -190.538617 
L 365.5125 -189.690742 
L 365.506322 -188.842866 
L 365.244866 -187.994991 
L 364.726662 -187.147116 
L 363.953577 -186.299241 
L 362.930798 -185.451366 
L 361.666763 -184.60349 
L 360.173029 -183.755615 
L 358.464068 -182.90774 
L 356.557012 -182.059865 
L 354.471342 -181.21199 
L 352.228525 -180.364115 
L 349.851616 -179.516239 
L 347.36483 -178.668364 
L 344.793092 -177.820489 
L 342.16158 -176.972614 
L 339.495282 -176.124739 
L 336.818554 -175.276863 
L 334.154722 -174.428988 
L 331.525713 -173.581113 
L 328.951737 -172.733238 
L 326.451019 -171.885363 
L 324.039595 -171.037488 
L 321.731169 -170.189612 
L 319.537028 -169.341737 
L 317.466023 -168.493862 
L 315.524604 -167.645987 
L 313.716911 -166.798112 
L 312.044904 -165.950236 
L 310.50854 -165.102361 
L 309.105972 -164.254486 
L 307.833774 -163.406611 
L 306.687178 -162.558736 
L 305.660315 -161.710861 
L 304.746451 -160.862985 
L 303.938226 -160.01511 
z
" id="maadab34712" style="stroke:#5c5c5c;stroke-width:0.5;"/>
    </defs>
    <g clip-path="url(#p611ab7c9fa)">
     <use style="fill:#e7d6b8;stroke:#5c5c5c;stroke-width:0.5;" x="0" xlink:href="#maadab34712" y="432"/>
    </g>
   </g>
   <g id="PolyCollection_3">
    <defs>
     <path d="M 441.738871 -116.472181 
L 435.761129 -116.472181 
L 435.262322 -117.377828 
L 434.699408 -118.283474 
L 434.067655 -119.189121 
L 433.362573 -120.094767 
L 432.580033 -121.000414 
L 431.716389 -121.90606 
L 430.768603 -122.811707 
L 429.734378 -123.717353 
L 428.612287 -124.623 
L 427.401891 -125.528646 
L 426.103858 -126.434293 
L 424.720064 -127.339939 
L 423.253677 -128.245586 
L 421.709216 -129.151232 
L 420.0926 -130.056879 
L 418.41115 -130.962525 
L 416.673576 -131.868172 
L 414.889924 -132.773818 
L 413.071494 -133.679465 
L 411.230718 -134.585111 
L 409.38101 -135.490758 
L 407.536583 -136.396404 
L 405.712237 -137.30205 
L 403.923117 -138.207697 
L 402.184453 -139.113343 
L 400.511286 -140.01899 
L 398.918176 -140.924636 
L 397.418915 -141.830283 
L 396.026233 -142.735929 
L 394.751528 -143.641576 
L 393.604602 -144.547222 
L 392.593428 -145.452869 
L 391.723954 -146.358515 
L 390.999939 -147.264162 
L 390.422843 -148.169808 
L 389.991762 -149.075455 
L 389.703427 -149.981101 
L 389.552251 -150.886748 
L 389.530441 -151.792394 
L 389.628174 -152.698041 
L 389.833816 -153.603687 
L 390.13421 -154.509334 
L 390.514999 -155.41498 
L 390.960991 -156.320626 
L 391.456557 -157.226273 
L 391.986043 -158.131919 
L 392.534195 -159.037566 
L 393.086575 -159.943212 
L 393.629958 -160.848859 
L 394.1527 -161.754505 
L 394.645064 -162.660152 
L 395.099485 -163.565798 
L 395.510783 -164.471445 
L 395.876287 -165.377091 
L 396.195898 -166.282738 
L 396.472061 -167.188384 
L 396.709659 -168.094031 
L 396.915831 -168.999677 
L 397.099719 -169.905324 
L 397.272142 -170.81097 
L 397.44523 -171.716617 
L 397.632006 -172.622263 
L 397.84595 -173.52791 
L 398.100544 -174.433556 
L 398.408826 -175.339203 
L 398.782964 -176.244849 
L 399.233858 -177.150495 
L 399.770797 -178.056142 
L 400.401165 -178.961788 
L 401.130218 -179.867435 
L 401.960935 -180.773081 
L 402.893938 -181.678728 
L 403.927494 -182.584374 
L 405.057588 -183.490021 
L 406.27806 -184.395667 
L 407.580809 -185.301314 
L 408.956042 -186.20696 
L 410.392568 -187.112607 
L 411.878118 -188.018253 
L 413.39968 -188.9239 
L 414.943842 -189.829546 
L 416.497124 -190.735193 
L 418.046295 -191.640839 
L 419.578665 -192.546486 
L 421.082335 -193.452132 
L 422.546415 -194.357779 
L 423.961199 -195.263425 
L 425.318288 -196.169072 
L 426.610671 -197.074718 
L 427.832766 -197.980364 
L 428.980415 -198.886011 
L 430.05084 -199.791657 
L 431.042577 -200.697304 
L 431.955374 -201.60295 
L 432.790072 -202.508597 
L 433.548477 -203.414243 
L 434.233209 -204.31989 
L 434.847568 -205.225536 
L 435.395381 -206.131183 
L 442.104619 -206.131183 
L 442.104619 -206.131183 
L 442.652432 -205.225536 
L 443.266791 -204.31989 
L 443.951523 -203.414243 
L 444.709928 -202.508597 
L 445.544626 -201.60295 
L 446.457423 -200.697304 
L 447.44916 -199.791657 
L 448.519585 -198.886011 
L 449.667234 -197.980364 
L 450.889329 -197.074718 
L 452.181712 -196.169072 
L 453.538801 -195.263425 
L 454.953585 -194.357779 
L 456.417665 -193.452132 
L 457.921335 -192.546486 
L 459.453705 -191.640839 
L 461.002876 -190.735193 
L 462.556158 -189.829546 
L 464.10032 -188.9239 
L 465.621882 -188.018253 
L 467.107432 -187.112607 
L 468.543958 -186.20696 
L 469.919191 -185.301314 
L 471.22194 -184.395667 
L 472.442412 -183.490021 
L 473.572506 -182.584374 
L 474.606062 -181.678728 
L 475.539065 -180.773081 
L 476.369782 -179.867435 
L 477.098835 -178.961788 
L 477.729203 -178.056142 
L 478.266142 -177.150495 
L 478.717036 -176.244849 
L 479.091174 -175.339203 
L 479.399456 -174.433556 
L 479.65405 -173.52791 
L 479.867994 -172.622263 
L 480.05477 -171.716617 
L 480.227858 -170.81097 
L 480.400281 -169.905324 
L 480.584169 -168.999677 
L 480.790341 -168.094031 
L 481.027939 -167.188384 
L 481.304102 -166.282738 
L 481.623713 -165.377091 
L 481.989217 -164.471445 
L 482.400515 -163.565798 
L 482.854936 -162.660152 
L 483.3473 -161.754505 
L 483.870042 -160.848859 
L 484.413425 -159.943212 
L 484.965805 -159.037566 
L 485.513957 -158.131919 
L 486.043443 -157.226273 
L 486.539009 -156.320626 
L 486.985001 -155.41498 
L 487.36579 -154.509334 
L 487.666184 -153.603687 
L 487.871826 -152.698041 
L 487.969559 -151.792394 
L 487.947749 -150.886748 
L 487.796573 -149.981101 
L 487.508238 -149.075455 
L 487.077157 -148.169808 
L 486.500061 -147.264162 
L 485.776046 -146.358515 
L 484.906572 -145.452869 
L 483.895398 -144.547222 
L 482.748472 -143.641576 
L 481.473767 -142.735929 
L 480.081085 -141.830283 
L 478.581824 -140.924636 
L 476.988714 -140.01899 
L 475.315547 -139.113343 
L 473.576883 -138.207697 
L 471.787763 -137.30205 
L 469.963417 -136.396404 
L 468.11899 -135.490758 
L 466.269282 -134.585111 
L 464.428506 -133.679465 
L 462.610076 -132.773818 
L 460.826424 -131.868172 
L 459.08885 -130.962525 
L 457.4074 -130.056879 
L 455.790784 -129.151232 
L 454.246323 -128.245586 
L 452.779936 -127.339939 
L 451.396142 -126.434293 
L 450.098109 -125.528646 
L 448.887713 -124.623 
L 447.765622 -123.717353 
L 446.731397 -122.811707 
L 445.783611 -121.90606 
L 444.919967 -121.000414 
L 444.137427 -120.094767 
L 443.432345 -119.189121 
L 442.800592 -118.283474 
L 442.237678 -117.377828 
L 441.738871 -116.472181 
z
" id="mfaca92fb43" style="stroke:#5c5c5c;stroke-width:0.5;"/>
    </defs>
    <g clip-path="url(#p611ab7c9fa)">
     <use style="fill:#ec76bc;stroke:#5c5c5c;stroke-width:0.5;" x="0" xlink:href="#mfaca92fb43" y="432"/>
    </g>
   </g>
   <g id="PolyCollection_4">
    <defs>
     <path d="M 580.473558 -100.140466 
L 576.026442 -100.140466 
L 575.663425 -101.1533 
L 575.258678 -102.166134 
L 574.810713 -103.178968 
L 574.318597 -104.191802 
L 573.782048 -105.204636 
L 573.20152 -106.21747 
L 572.578275 -107.230304 
L 571.914434 -108.243138 
L 571.213009 -109.255973 
L 570.477898 -110.268807 
L 569.713852 -111.281641 
L 568.926407 -112.294475 
L 568.121776 -113.307309 
L 567.306708 -114.320143 
L 566.488301 -115.332977 
L 565.6738 -116.345811 
L 564.870351 -117.358645 
L 564.084748 -118.371479 
L 563.323159 -119.384313 
L 562.590864 -120.397147 
L 561.891988 -121.409981 
L 561.229272 -122.422815 
L 560.603866 -123.435649 
L 560.015169 -124.448483 
L 559.460734 -125.461317 
L 558.93622 -126.474151 
L 558.435423 -127.486986 
L 557.950385 -128.49982 
L 557.471557 -129.512654 
L 556.988059 -130.525488 
L 556.48798 -131.538322 
L 555.958751 -132.551156 
L 555.387559 -133.56399 
L 554.761788 -134.576824 
L 554.06948 -135.589658 
L 553.299794 -136.602492 
L 552.443446 -137.615326 
L 551.493116 -138.62816 
L 550.443803 -139.640994 
L 549.293114 -140.653828 
L 548.041477 -141.666662 
L 546.692275 -142.679496 
L 545.25188 -143.69233 
L 543.729605 -144.705165 
L 542.137558 -145.717999 
L 540.490417 -146.730833 
L 538.805127 -147.743667 
L 537.100533 -148.756501 
L 535.396961 -149.769335 
L 533.715761 -150.782169 
L 532.078837 -151.795003 
L 530.508162 -152.807837 
L 529.02531 -153.820671 
L 527.651009 -154.833505 
L 526.404734 -155.846339 
L 525.304341 -156.859173 
L 524.365756 -157.872007 
L 523.602721 -158.884841 
L 523.026602 -159.897675 
L 522.646257 -160.910509 
L 522.467952 -161.923343 
L 522.495349 -162.936178 
L 522.729522 -163.949012 
L 523.169033 -164.961846 
L 523.810031 -165.97468 
L 524.646393 -166.987514 
L 525.669885 -168.000348 
L 526.870342 -169.013182 
L 528.235866 -170.026016 
L 529.753037 -171.03885 
L 531.407133 -172.051684 
L 533.182355 -173.064518 
L 535.062061 -174.077352 
L 537.029005 -175.090186 
L 539.065569 -176.10302 
L 541.154004 -177.115854 
L 543.276664 -178.128688 
L 545.416235 -179.141522 
L 547.555959 -180.154356 
L 549.679837 -181.167191 
L 551.772828 -182.180025 
L 553.821018 -183.192859 
L 555.811772 -184.205693 
L 557.73386 -185.218527 
L 559.577547 -186.231361 
L 561.33466 -187.244195 
L 562.998621 -188.257029 
L 564.564443 -189.269863 
L 566.0287 -190.282697 
L 567.389467 -191.295531 
L 568.646232 -192.308365 
L 569.799783 -193.321199 
L 570.852086 -194.334033 
L 571.806135 -195.346867 
L 572.665804 -196.359701 
L 573.43569 -197.372535 
L 574.120954 -198.385369 
L 574.727171 -199.398204 
L 575.260186 -200.411038 
L 581.239814 -200.411038 
L 581.239814 -200.411038 
L 581.772829 -199.398204 
L 582.379046 -198.385369 
L 583.06431 -197.372535 
L 583.834196 -196.359701 
L 584.693865 -195.346867 
L 585.647914 -194.334033 
L 586.700217 -193.321199 
L 587.853768 -192.308365 
L 589.110533 -191.295531 
L 590.4713 -190.282697 
L 591.935557 -189.269863 
L 593.501379 -188.257029 
L 595.16534 -187.244195 
L 596.922453 -186.231361 
L 598.76614 -185.218527 
L 600.688228 -184.205693 
L 602.678982 -183.192859 
L 604.727172 -182.180025 
L 606.820163 -181.167191 
L 608.944041 -180.154356 
L 611.083765 -179.141522 
L 613.223336 -178.128688 
L 615.345996 -177.115854 
L 617.434431 -176.10302 
L 619.470995 -175.090186 
L 621.437939 -174.077352 
L 623.317645 -173.064518 
L 625.092867 -172.051684 
L 626.746963 -171.03885 
L 628.264134 -170.026016 
L 629.629658 -169.013182 
L 630.830115 -168.000348 
L 631.853607 -166.987514 
L 632.689969 -165.97468 
L 633.330967 -164.961846 
L 633.770478 -163.949012 
L 634.004651 -162.936178 
L 634.032048 -161.923343 
L 633.853743 -160.910509 
L 633.473398 -159.897675 
L 632.897279 -158.884841 
L 632.134244 -157.872007 
L 631.195659 -156.859173 
L 630.095266 -155.846339 
L 628.848991 -154.833505 
L 627.47469 -153.820671 
L 625.991838 -152.807837 
L 624.421163 -151.795003 
L 622.784239 -150.782169 
L 621.103039 -149.769335 
L 619.399467 -148.756501 
L 617.694873 -147.743667 
L 616.009583 -146.730833 
L 614.362442 -145.717999 
L 612.770395 -144.705165 
L 611.24812 -143.69233 
L 609.807725 -142.679496 
L 608.458523 -141.666662 
L 607.206886 -140.653828 
L 606.056197 -139.640994 
L 605.006884 -138.62816 
L 604.056554 -137.615326 
L 603.200206 -136.602492 
L 602.43052 -135.589658 
L 601.738212 -134.576824 
L 601.112441 -133.56399 
L 600.541249 -132.551156 
L 600.01202 -131.538322 
L 599.511941 -130.525488 
L 599.028443 -129.512654 
L 598.549615 -128.49982 
L 598.064577 -127.486986 
L 597.56378 -126.474151 
L 597.039266 -125.461317 
L 596.484831 -124.448483 
L 595.896134 -123.435649 
L 595.270728 -122.422815 
L 594.608012 -121.409981 
L 593.909136 -120.397147 
L 593.176841 -119.384313 
L 592.415252 -118.371479 
L 591.629649 -117.358645 
L 590.8262 -116.345811 
L 590.011699 -115.332977 
L 589.193292 -114.320143 
L 588.378224 -113.307309 
L 587.573593 -112.294475 
L 586.786148 -111.281641 
L 586.022102 -110.268807 
L 585.286991 -109.255973 
L 584.585566 -108.243138 
L 583.921725 -107.230304 
L 583.29848 -106.21747 
L 582.717952 -105.204636 
L 582.181403 -104.191802 
L 581.689287 -103.178968 
L 581.241322 -102.166134 
L 580.836575 -101.1533 
L 580.473558 -100.140466 
z
" id="m34ade525d6" style="stroke:#5c5c5c;stroke-width:0.5;"/>
    </defs>
    <g clip-path="url(#p611ab7c9fa)">
     <use style="fill:#8fefef;stroke:#5c5c5c;stroke-width:0.5;" x="0" xlink:href="#m34ade525d6" y="432"/>
    </g>
   </g>
   <g id="line2d_12">
    <path clip-path="url(#p611ab7c9fa)" d="M 123.890037 211.247406 
L 195.609963 211.247406 
" style="fill:none;stroke:#5c5c5c;stroke-dasharray:0.375,0.375;stroke-dashoffset:0;stroke-width:0.5;"/>
   </g>
   <g id="line2d_13">
    <path clip-path="url(#p611ab7c9fa)" d="M 123.366999 199.444831 
L 196.133001 199.444831 
" style="fill:none;stroke:#5c5c5c;stroke-dasharray:0.75,0.75;stroke-dashoffset:0;stroke-width:0.5;"/>
   </g>
   <g id="line2d_14">
    <path clip-path="url(#p611ab7c9fa)" d="M 126.886128 192.669007 
L 192.613872 192.669007 
" style="fill:none;stroke:#5c5c5c;stroke-dasharray:0.375,0.375;stroke-dashoffset:0;stroke-width:0.5;"/>
   </g>
   <g id="line2d_15">
    <path clip-path="url(#p611ab7c9fa)" d="M 237.457404 247.085217 
L 361.042596 247.085217 
" style="fill:none;stroke:#5c5c5c;stroke-dasharray:0.375,0.375;stroke-dashoffset:0;stroke-width:0.5;"/>
   </g>
   <g id="line2d_16">
    <path clip-path="url(#p611ab7c9fa)" d="M 234.374141 240.202176 
L 364.125859 240.202176 
" style="fill:none;stroke:#5c5c5c;stroke-dasharray:0.75,0.75;stroke-dashoffset:0;stroke-width:0.5;"/>
   </g>
   <g id="line2d_17">
    <path clip-path="url(#p611ab7c9fa)" d="M 246.962952 233.295192 
L 351.537048 233.295192 
" style="fill:none;stroke:#5c5c5c;stroke-dasharray:0.375,0.375;stroke-dashoffset:0;stroke-width:0.5;"/>
   </g>
   <g id="line2d_18">
    <path clip-path="url(#p611ab7c9fa)" d="M 390.479345 282.570156 
L 487.020655 282.570156 
" style="fill:none;stroke:#5c5c5c;stroke-dasharray:0.375,0.375;stroke-dashoffset:0;stroke-width:0.5;"/>
   </g>
   <g id="line2d_19">
    <path clip-path="url(#p611ab7c9fa)" d="M 391.438881 276.097773 
L 486.061119 276.097773 
" style="fill:none;stroke:#5c5c5c;stroke-dasharray:0.75,0.75;stroke-dashoffset:0;stroke-width:0.5;"/>
   </g>
   <g id="line2d_20">
    <path clip-path="url(#p611ab7c9fa)" d="M 399.182634 255.632097 
L 478.317366 255.632097 
" style="fill:none;stroke:#5c5c5c;stroke-dasharray:0.375,0.375;stroke-dashoffset:0;stroke-width:0.5;"/>
   </g>
   <g id="line2d_21">
    <path clip-path="url(#p611ab7c9fa)" d="M 526.923187 276.652091 
L 629.576813 276.652091 
" style="fill:none;stroke:#5c5c5c;stroke-dasharray:0.375,0.375;stroke-dashoffset:0;stroke-width:0.5;"/>
   </g>
   <g id="line2d_22">
    <path clip-path="url(#p611ab7c9fa)" d="M 526.923187 275.727217 
L 629.576813 275.727217 
" style="fill:none;stroke:#5c5c5c;stroke-dasharray:0.75,0.75;stroke-dashoffset:0;stroke-width:0.5;"/>
   </g>
   <g id="line2d_23">
    <path clip-path="url(#p611ab7c9fa)" d="M 525.182429 264.940668 
L 631.317571 264.940668 
" style="fill:none;stroke:#5c5c5c;stroke-dasharray:0.375,0.375;stroke-dashoffset:0;stroke-width:0.5;"/>
   </g>
   <g id="patch_3">
    <path d="M 90 378 
L 90 51.84 
" style="fill:none;stroke:#262626;stroke-linecap:square;stroke-linejoin:miter;stroke-width:1.25;"/>
   </g>
   <g id="patch_4">
    <path d="M 648 378 
L 648 51.84 
" style="fill:none;stroke:#262626;stroke-linecap:square;stroke-linejoin:miter;stroke-width:1.25;"/>
   </g>
   <g id="patch_5">
    <path d="M 90 378 
L 648 378 
" style="fill:none;stroke:#262626;stroke-linecap:square;stroke-linejoin:miter;stroke-width:1.25;"/>
   </g>
   <g id="patch_6">
    <path d="M 90 51.84 
L 648 51.84 
" style="fill:none;stroke:#262626;stroke-linecap:square;stroke-linejoin:miter;stroke-width:1.25;"/>
   </g>
   <g id="PathCollection_1">
    <defs>
     <path d="M 0 2.5 
C 0.663008 2.5 1.29895 2.236584 1.767767 1.767767 
C 2.236584 1.29895 2.5 0.663008 2.5 0 
C 2.5 -0.663008 2.236584 -1.29895 1.767767 -1.767767 
C 1.29895 -2.236584 0.663008 -2.5 0 -2.5 
C -0.663008 -2.5 -1.29895 -2.236584 -1.767767 -1.767767 
C -2.236584 -1.29895 -2.5 -0.663008 -2.5 0 
C -2.5 0.663008 -2.236584 1.29895 -1.767767 1.767767 
C -1.29895 2.236584 -0.663008 2.5 0 2.5 
z
" id="C0_0_fc00680f00"/>
    </defs>
    <g clip-path="url(#p611ab7c9fa)">
     <use style="fill:#0000ff;fill-opacity:0.2;" x="159.75" xlink:href="#C0_0_fc00680f00" y="221.501194"/>
    </g>
    <g clip-path="url(#p611ab7c9fa)">
     <use style="fill:#0000ff;fill-opacity:0.2;" x="159.75" xlink:href="#C0_0_fc00680f00" y="212.410308"/>
    </g>
    <g clip-path="url(#p611ab7c9fa)">
     <use style="fill:#0000ff;fill-opacity:0.2;" x="155.102562" xlink:href="#C0_0_fc00680f00" y="210.084504"/>
    </g>
    <g clip-path="url(#p611ab7c9fa)">
     <use style="fill:#0000ff;fill-opacity:0.2;" x="159.75" xlink:href="#C0_0_fc00680f00" y="199.444831"/>
    </g>
    <g clip-path="url(#p611ab7c9fa)">
     <use style="fill:#0000ff;fill-opacity:0.2;" x="154.959978" xlink:href="#C0_0_fc00680f00" y="197.398167"/>
    </g>
    <g clip-path="url(#p611ab7c9fa)">
     <use style="fill:#0000ff;fill-opacity:0.2;" x="159.75" xlink:href="#C0_0_fc00680f00" y="187.939846"/>
    </g>
    <g clip-path="url(#p611ab7c9fa)">
     <use style="fill:#0000ff;fill-opacity:0.2;" x="159.75" xlink:href="#C0_0_fc00680f00" y="124.32"/>
    </g>
   </g>
   <g id="PathCollection_2">
    <defs>
     <path d="M 0 2.5 
C 0.663008 2.5 1.29895 2.236584 1.767767 1.767767 
C 2.236584 1.29895 2.5 0.663008 2.5 0 
C 2.5 -0.663008 2.236584 -1.29895 1.767767 -1.767767 
C 1.29895 -2.236584 0.663008 -2.5 0 -2.5 
C -0.663008 -2.5 -1.29895 -2.236584 -1.767767 -1.767767 
C -2.236584 -1.29895 -2.5 -0.663008 -2.5 0 
C -2.5 0.663008 -2.236584 1.29895 -1.767767 1.767767 
C -1.29895 2.236584 -0.663008 2.5 0 2.5 
z
" id="C1_0_2a03db19f5"/>
    </defs>
    <g clip-path="url(#p611ab7c9fa)">
     <use style="fill:#0000ff;fill-opacity:0.2;" x="299.25" xlink:href="#C1_0_2a03db19f5" y="249.400241"/>
    </g>
    <g clip-path="url(#p611ab7c9fa)">
     <use style="fill:#0000ff;fill-opacity:0.2;" x="294.596632" xlink:href="#C1_0_2a03db19f5" y="247.085217"/>
    </g>
    <g clip-path="url(#p611ab7c9fa)">
     <use style="fill:#0000ff;fill-opacity:0.2;" x="299.25" xlink:href="#C1_0_2a03db19f5" y="240.202176"/>
    </g>
    <g clip-path="url(#p611ab7c9fa)">
     <use style="fill:#0000ff;fill-opacity:0.2;" x="299.25" xlink:href="#C1_0_2a03db19f5" y="233.295192"/>
    </g>
    <g clip-path="url(#p611ab7c9fa)">
     <use style="fill:#0000ff;fill-opacity:0.2;" x="299.25" xlink:href="#C1_0_2a03db19f5" y="210.629896"/>
    </g>
   </g>
   <g id="PathCollection_3">
    <defs>
     <path d="M 0 2.5 
C 0.663008 2.5 1.29895 2.236584 1.767767 1.767767 
C 2.236584 1.29895 2.5 0.663008 2.5 0 
C 2.5 -0.663008 2.236584 -1.29895 1.767767 -1.767767 
C 1.29895 -2.236584 0.663008 -2.5 0 -2.5 
C -0.663008 -2.5 -1.29895 -2.236584 -1.767767 -1.767767 
C -2.236584 -1.29895 -2.5 -0.663008 -2.5 0 
C -2.5 0.663008 -2.236584 1.29895 -1.767767 1.767767 
C -1.29895 2.236584 -0.663008 2.5 0 2.5 
z
" id="C2_0_163c655d53"/>
    </defs>
    <g clip-path="url(#p611ab7c9fa)">
     <use style="fill:#0000ff;fill-opacity:0.2;" x="438.75" xlink:href="#C2_0_163c655d53" y="290.569378"/>
    </g>
    <g clip-path="url(#p611ab7c9fa)">
     <use style="fill:#0000ff;fill-opacity:0.2;" x="438.75" xlink:href="#C2_0_163c655d53" y="282.570156"/>
    </g>
    <g clip-path="url(#p611ab7c9fa)">
     <use style="fill:#0000ff;fill-opacity:0.2;" x="438.75" xlink:href="#C2_0_163c655d53" y="276.097773"/>
    </g>
    <g clip-path="url(#p611ab7c9fa)">
     <use style="fill:#0000ff;fill-opacity:0.2;" x="438.75" xlink:href="#C2_0_163c655d53" y="255.632097"/>
    </g>
    <g clip-path="url(#p611ab7c9fa)">
     <use style="fill:#0000ff;fill-opacity:0.2;" x="437.297536" xlink:href="#C2_0_163c655d53" y="250.827258"/>
    </g>
   </g>
   <g id="PathCollection_4">
    <defs>
     <path d="M 0 2.5 
C 0.663008 2.5 1.29895 2.236584 1.767767 1.767767 
C 2.236584 1.29895 2.5 0.663008 2.5 0 
C 2.5 -0.663008 2.236584 -1.29895 1.767767 -1.767767 
C 1.29895 -2.236584 0.663008 -2.5 0 -2.5 
C -0.663008 -2.5 -1.29895 -2.236584 -1.767767 -1.767767 
C -2.236584 -1.29895 -2.5 -0.663008 -2.5 0 
C -2.5 0.663008 -2.236584 1.29895 -1.767767 1.767767 
C -1.29895 2.236584 -0.663008 2.5 0 2.5 
z
" id="C3_0_20c91776df"/>
    </defs>
    <g clip-path="url(#p611ab7c9fa)">
     <use style="fill:#0000ff;fill-opacity:0.2;" x="578.25" xlink:href="#C3_0_20c91776df" y="305.52"/>
    </g>
    <g clip-path="url(#p611ab7c9fa)">
     <use style="fill:#0000ff;fill-opacity:0.2;" x="578.25" xlink:href="#C3_0_20c91776df" y="276.652091"/>
    </g>
    <g clip-path="url(#p611ab7c9fa)">
     <use style="fill:#0000ff;fill-opacity:0.2;" x="573.090598" xlink:href="#C3_0_20c91776df" y="275.727217"/>
    </g>
    <g clip-path="url(#p611ab7c9fa)">
     <use style="fill:#0000ff;fill-opacity:0.2;" x="578.25" xlink:href="#C3_0_20c91776df" y="264.940668"/>
    </g>
    <g clip-path="url(#p611ab7c9fa)">
     <use style="fill:#0000ff;fill-opacity:0.2;" x="578.25" xlink:href="#C3_0_20c91776df" y="257.928496"/>
    </g>
   </g>
   <g id="text_14">
    <!-- p=0.000245* -->
    <defs>
     <path d="M 10.59375 45.40625 
L 73.1875 45.40625 
L 73.1875 37.203125 
L 10.59375 37.203125 
z
M 10.59375 25.484375 
L 73.1875 25.484375 
L 73.1875 17.1875 
L 10.59375 17.1875 
z
" id="DejaVuSans-61"/>
     <path d="M 37.796875 64.3125 
L 12.890625 25.390625 
L 37.796875 25.390625 
z
M 35.203125 72.90625 
L 47.609375 72.90625 
L 47.609375 25.390625 
L 58.015625 25.390625 
L 58.015625 17.1875 
L 47.609375 17.1875 
L 47.609375 0 
L 37.796875 0 
L 37.796875 17.1875 
L 4.890625 17.1875 
L 4.890625 26.703125 
z
" id="DejaVuSans-52"/>
     <path d="M 47.015625 60.890625 
L 29.5 51.421875 
L 47.015625 41.890625 
L 44.1875 37.109375 
L 27.78125 47.015625 
L 27.78125 28.609375 
L 22.21875 28.609375 
L 22.21875 47.015625 
L 5.8125 37.109375 
L 2.984375 41.890625 
L 20.515625 51.421875 
L 2.984375 60.890625 
L 5.8125 65.71875 
L 22.21875 55.8125 
L 22.21875 74.21875 
L 27.78125 74.21875 
L 27.78125 55.8125 
L 44.1875 65.71875 
z
" id="DejaVuSans-42"/>
    </defs>
    <g style="fill:#4c4c4c;" transform="translate(119.28375 124.32)scale(0.12 -0.12)">
     <use xlink:href="#DejaVuSans-112"/>
     <use x="63.476562" xlink:href="#DejaVuSans-61"/>
     <use x="147.265625" xlink:href="#DejaVuSans-48"/>
     <use x="210.888672" xlink:href="#DejaVuSans-46"/>
     <use x="242.675781" xlink:href="#DejaVuSans-48"/>
     <use x="306.298828" xlink:href="#DejaVuSans-48"/>
     <use x="369.921875" xlink:href="#DejaVuSans-48"/>
     <use x="433.544922" xlink:href="#DejaVuSans-50"/>
     <use x="497.167969" xlink:href="#DejaVuSans-52"/>
     <use x="560.791016" xlink:href="#DejaVuSans-53"/>
     <use x="624.414062" xlink:href="#DejaVuSans-42"/>
    </g>
   </g>
   <g id="text_15">
    <!-- p=0.00595* -->
    <defs>
     <path d="M 10.984375 1.515625 
L 10.984375 10.5 
Q 14.703125 8.734375 18.5 7.8125 
Q 22.3125 6.890625 25.984375 6.890625 
Q 35.75 6.890625 40.890625 13.453125 
Q 46.046875 20.015625 46.78125 33.40625 
Q 43.953125 29.203125 39.59375 26.953125 
Q 35.25 24.703125 29.984375 24.703125 
Q 19.046875 24.703125 12.671875 31.3125 
Q 6.296875 37.9375 6.296875 49.421875 
Q 6.296875 60.640625 12.9375 67.421875 
Q 19.578125 74.21875 30.609375 74.21875 
Q 43.265625 74.21875 49.921875 64.515625 
Q 56.59375 54.828125 56.59375 36.375 
Q 56.59375 19.140625 48.40625 8.859375 
Q 40.234375 -1.421875 26.421875 -1.421875 
Q 22.703125 -1.421875 18.890625 -0.6875 
Q 15.09375 0.046875 10.984375 1.515625 
z
M 30.609375 32.421875 
Q 37.25 32.421875 41.125 36.953125 
Q 45.015625 41.5 45.015625 49.421875 
Q 45.015625 57.28125 41.125 61.84375 
Q 37.25 66.40625 30.609375 66.40625 
Q 23.96875 66.40625 20.09375 61.84375 
Q 16.21875 57.28125 16.21875 49.421875 
Q 16.21875 41.5 20.09375 36.953125 
Q 23.96875 32.421875 30.609375 32.421875 
z
" id="DejaVuSans-57"/>
    </defs>
    <g style="fill:#4c4c4c;" transform="translate(262.60125 210.629896)scale(0.12 -0.12)">
     <use xlink:href="#DejaVuSans-112"/>
     <use x="63.476562" xlink:href="#DejaVuSans-61"/>
     <use x="147.265625" xlink:href="#DejaVuSans-48"/>
     <use x="210.888672" xlink:href="#DejaVuSans-46"/>
     <use x="242.675781" xlink:href="#DejaVuSans-48"/>
     <use x="306.298828" xlink:href="#DejaVuSans-48"/>
     <use x="369.921875" xlink:href="#DejaVuSans-53"/>
     <use x="433.544922" xlink:href="#DejaVuSans-57"/>
     <use x="497.167969" xlink:href="#DejaVuSans-53"/>
     <use x="560.791016" xlink:href="#DejaVuSans-42"/>
    </g>
   </g>
   <g id="text_16">
    <!-- p=0.666 -->
    <defs>
     <path d="M 33.015625 40.375 
Q 26.375 40.375 22.484375 35.828125 
Q 18.609375 31.296875 18.609375 23.390625 
Q 18.609375 15.53125 22.484375 10.953125 
Q 26.375 6.390625 33.015625 6.390625 
Q 39.65625 6.390625 43.53125 10.953125 
Q 47.40625 15.53125 47.40625 23.390625 
Q 47.40625 31.296875 43.53125 35.828125 
Q 39.65625 40.375 33.015625 40.375 
z
M 52.59375 71.296875 
L 52.59375 62.3125 
Q 48.875 64.0625 45.09375 64.984375 
Q 41.3125 65.921875 37.59375 65.921875 
Q 27.828125 65.921875 22.671875 59.328125 
Q 17.53125 52.734375 16.796875 39.40625 
Q 19.671875 43.65625 24.015625 45.921875 
Q 28.375 48.1875 33.59375 48.1875 
Q 44.578125 48.1875 50.953125 41.515625 
Q 57.328125 34.859375 57.328125 23.390625 
Q 57.328125 12.15625 50.6875 5.359375 
Q 44.046875 -1.421875 33.015625 -1.421875 
Q 20.359375 -1.421875 13.671875 8.265625 
Q 6.984375 17.96875 6.984375 36.375 
Q 6.984375 53.65625 15.1875 63.9375 
Q 23.390625 74.21875 37.203125 74.21875 
Q 40.921875 74.21875 44.703125 73.484375 
Q 48.484375 72.75 52.59375 71.296875 
z
" id="DejaVuSans-54"/>
    </defs>
    <g style="fill:#4c4c4c;" transform="translate(412.73625 250.827258)scale(0.12 -0.12)">
     <use xlink:href="#DejaVuSans-112"/>
     <use x="63.476562" xlink:href="#DejaVuSans-61"/>
     <use x="147.265625" xlink:href="#DejaVuSans-48"/>
     <use x="210.888672" xlink:href="#DejaVuSans-46"/>
     <use x="242.675781" xlink:href="#DejaVuSans-54"/>
     <use x="306.298828" xlink:href="#DejaVuSans-54"/>
     <use x="369.921875" xlink:href="#DejaVuSans-54"/>
    </g>
   </g>
  </g>
 </g>
 <defs>
  <clipPath id="p611ab7c9fa">
   <rect height="326.16" width="558" x="90" y="51.84"/>
  </clipPath>
 </defs>
</svg>
