<?xml version="1.0" encoding="utf-8" standalone="no"?>
<!DOCTYPE svg PUBLIC "-//W3C//DTD SVG 1.1//EN"
  "http://www.w3.org/Graphics/SVG/1.1/DTD/svg11.dtd">
<!-- Created with matplotlib (https://matplotlib.org/) -->
<svg height="432pt" version="1.1" viewBox="0 0 720 432" width="720pt" xmlns="http://www.w3.org/2000/svg" xmlns:xlink="http://www.w3.org/1999/xlink">
 <defs>
  <style type="text/css">
*{stroke-linecap:butt;stroke-linejoin:round;}
  </style>
 </defs>
 <g id="figure_1">
  <g id="patch_1">
   <path d="M 0 432 
L 720 432 
L 720 0 
L 0 0 
z
" style="fill:#ffffff;"/>
  </g>
  <g id="axes_1">
   <g id="patch_2">
    <path d="M 90 378 
L 648 378 
L 648 51.84 
L 90 51.84 
z
" style="fill:#ffffff;"/>
   </g>
   <g id="matplotlib.axis_1">
    <g id="xtick_1">
     <g id="line2d_1">
      <path clip-path="url(#pcd6109b8e8)" d="M 229.5 378 
L 229.5 51.84 
" style="fill:none;stroke:#cccccc;stroke-dasharray:3.7,1.6;stroke-dashoffset:0;stroke-opacity:0.5;"/>
     </g>
     <g id="text_1">
      <!-- boiling -->
      <defs>
       <path d="M 48.6875 27.296875 
Q 48.6875 37.203125 44.609375 42.84375 
Q 40.53125 48.484375 33.40625 48.484375 
Q 26.265625 48.484375 22.1875 42.84375 
Q 18.109375 37.203125 18.109375 27.296875 
Q 18.109375 17.390625 22.1875 11.75 
Q 26.265625 6.109375 33.40625 6.109375 
Q 40.53125 6.109375 44.609375 11.75 
Q 48.6875 17.390625 48.6875 27.296875 
z
M 18.109375 46.390625 
Q 20.953125 51.265625 25.265625 53.625 
Q 29.59375 56 35.59375 56 
Q 45.5625 56 51.78125 48.09375 
Q 58.015625 40.1875 58.015625 27.296875 
Q 58.015625 14.40625 51.78125 6.484375 
Q 45.5625 -1.421875 35.59375 -1.421875 
Q 29.59375 -1.421875 25.265625 0.953125 
Q 20.953125 3.328125 18.109375 8.203125 
L 18.109375 0 
L 9.078125 0 
L 9.078125 75.984375 
L 18.109375 75.984375 
z
" id="DejaVuSans-98"/>
       <path d="M 30.609375 48.390625 
Q 23.390625 48.390625 19.1875 42.75 
Q 14.984375 37.109375 14.984375 27.296875 
Q 14.984375 17.484375 19.15625 11.84375 
Q 23.34375 6.203125 30.609375 6.203125 
Q 37.796875 6.203125 41.984375 11.859375 
Q 46.1875 17.53125 46.1875 27.296875 
Q 46.1875 37.015625 41.984375 42.703125 
Q 37.796875 48.390625 30.609375 48.390625 
z
M 30.609375 56 
Q 42.328125 56 49.015625 48.375 
Q 55.71875 40.765625 55.71875 27.296875 
Q 55.71875 13.875 49.015625 6.21875 
Q 42.328125 -1.421875 30.609375 -1.421875 
Q 18.84375 -1.421875 12.171875 6.21875 
Q 5.515625 13.875 5.515625 27.296875 
Q 5.515625 40.765625 12.171875 48.375 
Q 18.84375 56 30.609375 56 
z
" id="DejaVuSans-111"/>
       <path d="M 9.421875 54.6875 
L 18.40625 54.6875 
L 18.40625 0 
L 9.421875 0 
z
M 9.421875 75.984375 
L 18.40625 75.984375 
L 18.40625 64.59375 
L 9.421875 64.59375 
z
" id="DejaVuSans-105"/>
       <path d="M 9.421875 75.984375 
L 18.40625 75.984375 
L 18.40625 0 
L 9.421875 0 
z
" id="DejaVuSans-108"/>
       <path d="M 54.890625 33.015625 
L 54.890625 0 
L 45.90625 0 
L 45.90625 32.71875 
Q 45.90625 40.484375 42.875 44.328125 
Q 39.84375 48.1875 33.796875 48.1875 
Q 26.515625 48.1875 22.3125 43.546875 
Q 18.109375 38.921875 18.109375 30.90625 
L 18.109375 0 
L 9.078125 0 
L 9.078125 54.6875 
L 18.109375 54.6875 
L 18.109375 46.1875 
Q 21.34375 51.125 25.703125 53.5625 
Q 30.078125 56 35.796875 56 
Q 45.21875 56 50.046875 50.171875 
Q 54.890625 44.34375 54.890625 33.015625 
z
" id="DejaVuSans-110"/>
       <path d="M 45.40625 27.984375 
Q 45.40625 37.75 41.375 43.109375 
Q 37.359375 48.484375 30.078125 48.484375 
Q 22.859375 48.484375 18.828125 43.109375 
Q 14.796875 37.75 14.796875 27.984375 
Q 14.796875 18.265625 18.828125 12.890625 
Q 22.859375 7.515625 30.078125 7.515625 
Q 37.359375 7.515625 41.375 12.890625 
Q 45.40625 18.265625 45.40625 27.984375 
z
M 54.390625 6.78125 
Q 54.390625 -7.171875 48.1875 -13.984375 
Q 42 -20.796875 29.203125 -20.796875 
Q 24.46875 -20.796875 20.265625 -20.09375 
Q 16.0625 -19.390625 12.109375 -17.921875 
L 12.109375 -9.1875 
Q 16.0625 -11.328125 19.921875 -12.34375 
Q 23.78125 -13.375 27.78125 -13.375 
Q 36.625 -13.375 41.015625 -8.765625 
Q 45.40625 -4.15625 45.40625 5.171875 
L 45.40625 9.625 
Q 42.625 4.78125 38.28125 2.390625 
Q 33.9375 0 27.875 0 
Q 17.828125 0 11.671875 7.65625 
Q 5.515625 15.328125 5.515625 27.984375 
Q 5.515625 40.671875 11.671875 48.328125 
Q 17.828125 56 27.875 56 
Q 33.9375 56 38.28125 53.609375 
Q 42.625 51.21875 45.40625 46.390625 
L 45.40625 54.6875 
L 54.390625 54.6875 
z
" id="DejaVuSans-103"/>
      </defs>
      <g style="fill:#808080;" transform="translate(211.081875 395.858281)scale(0.11 -0.11)">
       <use xlink:href="#DejaVuSans-98"/>
       <use x="63.476562" xlink:href="#DejaVuSans-111"/>
       <use x="124.658203" xlink:href="#DejaVuSans-105"/>
       <use x="152.441406" xlink:href="#DejaVuSans-108"/>
       <use x="180.224609" xlink:href="#DejaVuSans-105"/>
       <use x="208.007812" xlink:href="#DejaVuSans-110"/>
       <use x="271.386719" xlink:href="#DejaVuSans-103"/>
      </g>
     </g>
    </g>
    <g id="xtick_2">
     <g id="line2d_2">
      <path clip-path="url(#pcd6109b8e8)" d="M 508.5 378 
L 508.5 51.84 
" style="fill:none;stroke:#cccccc;stroke-dasharray:3.7,1.6;stroke-dashoffset:0;stroke-opacity:0.5;"/>
     </g>
     <g id="text_2">
      <!-- pressure -->
      <defs>
       <path d="M 18.109375 8.203125 
L 18.109375 -20.796875 
L 9.078125 -20.796875 
L 9.078125 54.6875 
L 18.109375 54.6875 
L 18.109375 46.390625 
Q 20.953125 51.265625 25.265625 53.625 
Q 29.59375 56 35.59375 56 
Q 45.5625 56 51.78125 48.09375 
Q 58.015625 40.1875 58.015625 27.296875 
Q 58.015625 14.40625 51.78125 6.484375 
Q 45.5625 -1.421875 35.59375 -1.421875 
Q 29.59375 -1.421875 25.265625 0.953125 
Q 20.953125 3.328125 18.109375 8.203125 
z
M 48.6875 27.296875 
Q 48.6875 37.203125 44.609375 42.84375 
Q 40.53125 48.484375 33.40625 48.484375 
Q 26.265625 48.484375 22.1875 42.84375 
Q 18.109375 37.203125 18.109375 27.296875 
Q 18.109375 17.390625 22.1875 11.75 
Q 26.265625 6.109375 33.40625 6.109375 
Q 40.53125 6.109375 44.609375 11.75 
Q 48.6875 17.390625 48.6875 27.296875 
z
" id="DejaVuSans-112"/>
       <path d="M 41.109375 46.296875 
Q 39.59375 47.171875 37.8125 47.578125 
Q 36.03125 48 33.890625 48 
Q 26.265625 48 22.1875 43.046875 
Q 18.109375 38.09375 18.109375 28.8125 
L 18.109375 0 
L 9.078125 0 
L 9.078125 54.6875 
L 18.109375 54.6875 
L 18.109375 46.1875 
Q 20.953125 51.171875 25.484375 53.578125 
Q 30.03125 56 36.53125 56 
Q 37.453125 56 38.578125 55.875 
Q 39.703125 55.765625 41.0625 55.515625 
z
" id="DejaVuSans-114"/>
       <path d="M 56.203125 29.59375 
L 56.203125 25.203125 
L 14.890625 25.203125 
Q 15.484375 15.921875 20.484375 11.0625 
Q 25.484375 6.203125 34.421875 6.203125 
Q 39.59375 6.203125 44.453125 7.46875 
Q 49.3125 8.734375 54.109375 11.28125 
L 54.109375 2.78125 
Q 49.265625 0.734375 44.1875 -0.34375 
Q 39.109375 -1.421875 33.890625 -1.421875 
Q 20.796875 -1.421875 13.15625 6.1875 
Q 5.515625 13.8125 5.515625 26.8125 
Q 5.515625 40.234375 12.765625 48.109375 
Q 20.015625 56 32.328125 56 
Q 43.359375 56 49.78125 48.890625 
Q 56.203125 41.796875 56.203125 29.59375 
z
M 47.21875 32.234375 
Q 47.125 39.59375 43.09375 43.984375 
Q 39.0625 48.390625 32.421875 48.390625 
Q 24.90625 48.390625 20.390625 44.140625 
Q 15.875 39.890625 15.1875 32.171875 
z
" id="DejaVuSans-101"/>
       <path d="M 44.28125 53.078125 
L 44.28125 44.578125 
Q 40.484375 46.53125 36.375 47.5 
Q 32.28125 48.484375 27.875 48.484375 
Q 21.1875 48.484375 17.84375 46.4375 
Q 14.5 44.390625 14.5 40.28125 
Q 14.5 37.15625 16.890625 35.375 
Q 19.28125 33.59375 26.515625 31.984375 
L 29.59375 31.296875 
Q 39.15625 29.25 43.1875 25.515625 
Q 47.21875 21.78125 47.21875 15.09375 
Q 47.21875 7.46875 41.1875 3.015625 
Q 35.15625 -1.421875 24.609375 -1.421875 
Q 20.21875 -1.421875 15.453125 -0.5625 
Q 10.6875 0.296875 5.421875 2 
L 5.421875 11.28125 
Q 10.40625 8.6875 15.234375 7.390625 
Q 20.0625 6.109375 24.8125 6.109375 
Q 31.15625 6.109375 34.5625 8.28125 
Q 37.984375 10.453125 37.984375 14.40625 
Q 37.984375 18.0625 35.515625 20.015625 
Q 33.0625 21.96875 24.703125 23.78125 
L 21.578125 24.515625 
Q 13.234375 26.265625 9.515625 29.90625 
Q 5.8125 33.546875 5.8125 39.890625 
Q 5.8125 47.609375 11.28125 51.796875 
Q 16.75 56 26.8125 56 
Q 31.78125 56 36.171875 55.265625 
Q 40.578125 54.546875 44.28125 53.078125 
z
" id="DejaVuSans-115"/>
       <path d="M 8.5 21.578125 
L 8.5 54.6875 
L 17.484375 54.6875 
L 17.484375 21.921875 
Q 17.484375 14.15625 20.5 10.265625 
Q 23.53125 6.390625 29.59375 6.390625 
Q 36.859375 6.390625 41.078125 11.03125 
Q 45.3125 15.671875 45.3125 23.6875 
L 45.3125 54.6875 
L 54.296875 54.6875 
L 54.296875 0 
L 45.3125 0 
L 45.3125 8.40625 
Q 42.046875 3.421875 37.71875 1 
Q 33.40625 -1.421875 27.6875 -1.421875 
Q 18.265625 -1.421875 13.375 4.4375 
Q 8.5 10.296875 8.5 21.578125 
z
M 31.109375 56 
z
" id="DejaVuSans-117"/>
      </defs>
      <g style="fill:#808080;" transform="translate(484.749453 395.858281)scale(0.11 -0.11)">
       <use xlink:href="#DejaVuSans-112"/>
       <use x="63.476562" xlink:href="#DejaVuSans-114"/>
       <use x="102.339844" xlink:href="#DejaVuSans-101"/>
       <use x="163.863281" xlink:href="#DejaVuSans-115"/>
       <use x="215.962891" xlink:href="#DejaVuSans-115"/>
       <use x="268.0625" xlink:href="#DejaVuSans-117"/>
       <use x="331.441406" xlink:href="#DejaVuSans-114"/>
       <use x="370.304688" xlink:href="#DejaVuSans-101"/>
      </g>
     </g>
    </g>
    <g id="text_3">
     <!-- Staining Protocol -->
     <defs>
      <path d="M 53.515625 70.515625 
L 53.515625 60.890625 
Q 47.90625 63.578125 42.921875 64.890625 
Q 37.9375 66.21875 33.296875 66.21875 
Q 25.25 66.21875 20.875 63.09375 
Q 16.5 59.96875 16.5 54.203125 
Q 16.5 49.359375 19.40625 46.890625 
Q 22.3125 44.4375 30.421875 42.921875 
L 36.375 41.703125 
Q 47.40625 39.59375 52.65625 34.296875 
Q 57.90625 29 57.90625 20.125 
Q 57.90625 9.515625 50.796875 4.046875 
Q 43.703125 -1.421875 29.984375 -1.421875 
Q 24.8125 -1.421875 18.96875 -0.25 
Q 13.140625 0.921875 6.890625 3.21875 
L 6.890625 13.375 
Q 12.890625 10.015625 18.65625 8.296875 
Q 24.421875 6.59375 29.984375 6.59375 
Q 38.421875 6.59375 43.015625 9.90625 
Q 47.609375 13.234375 47.609375 19.390625 
Q 47.609375 24.75 44.3125 27.78125 
Q 41.015625 30.8125 33.5 32.328125 
L 27.484375 33.5 
Q 16.453125 35.6875 11.515625 40.375 
Q 6.59375 45.0625 6.59375 53.421875 
Q 6.59375 63.09375 13.40625 68.65625 
Q 20.21875 74.21875 32.171875 74.21875 
Q 37.3125 74.21875 42.625 73.28125 
Q 47.953125 72.359375 53.515625 70.515625 
z
" id="DejaVuSans-83"/>
      <path d="M 18.3125 70.21875 
L 18.3125 54.6875 
L 36.8125 54.6875 
L 36.8125 47.703125 
L 18.3125 47.703125 
L 18.3125 18.015625 
Q 18.3125 11.328125 20.140625 9.421875 
Q 21.96875 7.515625 27.59375 7.515625 
L 36.8125 7.515625 
L 36.8125 0 
L 27.59375 0 
Q 17.1875 0 13.234375 3.875 
Q 9.28125 7.765625 9.28125 18.015625 
L 9.28125 47.703125 
L 2.6875 47.703125 
L 2.6875 54.6875 
L 9.28125 54.6875 
L 9.28125 70.21875 
z
" id="DejaVuSans-116"/>
      <path d="M 34.28125 27.484375 
Q 23.390625 27.484375 19.1875 25 
Q 14.984375 22.515625 14.984375 16.5 
Q 14.984375 11.71875 18.140625 8.90625 
Q 21.296875 6.109375 26.703125 6.109375 
Q 34.1875 6.109375 38.703125 11.40625 
Q 43.21875 16.703125 43.21875 25.484375 
L 43.21875 27.484375 
z
M 52.203125 31.203125 
L 52.203125 0 
L 43.21875 0 
L 43.21875 8.296875 
Q 40.140625 3.328125 35.546875 0.953125 
Q 30.953125 -1.421875 24.3125 -1.421875 
Q 15.921875 -1.421875 10.953125 3.296875 
Q 6 8.015625 6 15.921875 
Q 6 25.140625 12.171875 29.828125 
Q 18.359375 34.515625 30.609375 34.515625 
L 43.21875 34.515625 
L 43.21875 35.40625 
Q 43.21875 41.609375 39.140625 45 
Q 35.0625 48.390625 27.6875 48.390625 
Q 23 48.390625 18.546875 47.265625 
Q 14.109375 46.140625 10.015625 43.890625 
L 10.015625 52.203125 
Q 14.9375 54.109375 19.578125 55.046875 
Q 24.21875 56 28.609375 56 
Q 40.484375 56 46.34375 49.84375 
Q 52.203125 43.703125 52.203125 31.203125 
z
" id="DejaVuSans-97"/>
      <path id="DejaVuSans-32"/>
      <path d="M 19.671875 64.796875 
L 19.671875 37.40625 
L 32.078125 37.40625 
Q 38.96875 37.40625 42.71875 40.96875 
Q 46.484375 44.53125 46.484375 51.125 
Q 46.484375 57.671875 42.71875 61.234375 
Q 38.96875 64.796875 32.078125 64.796875 
z
M 9.8125 72.90625 
L 32.078125 72.90625 
Q 44.34375 72.90625 50.609375 67.359375 
Q 56.890625 61.8125 56.890625 51.125 
Q 56.890625 40.328125 50.609375 34.8125 
Q 44.34375 29.296875 32.078125 29.296875 
L 19.671875 29.296875 
L 19.671875 0 
L 9.8125 0 
z
" id="DejaVuSans-80"/>
      <path d="M 48.78125 52.59375 
L 48.78125 44.1875 
Q 44.96875 46.296875 41.140625 47.34375 
Q 37.3125 48.390625 33.40625 48.390625 
Q 24.65625 48.390625 19.8125 42.84375 
Q 14.984375 37.3125 14.984375 27.296875 
Q 14.984375 17.28125 19.8125 11.734375 
Q 24.65625 6.203125 33.40625 6.203125 
Q 37.3125 6.203125 41.140625 7.25 
Q 44.96875 8.296875 48.78125 10.40625 
L 48.78125 2.09375 
Q 45.015625 0.34375 40.984375 -0.53125 
Q 36.96875 -1.421875 32.421875 -1.421875 
Q 20.0625 -1.421875 12.78125 6.34375 
Q 5.515625 14.109375 5.515625 27.296875 
Q 5.515625 40.671875 12.859375 48.328125 
Q 20.21875 56 33.015625 56 
Q 37.15625 56 41.109375 55.140625 
Q 45.0625 54.296875 48.78125 52.59375 
z
" id="DejaVuSans-99"/>
     </defs>
     <g style="fill:#808080;" transform="translate(318.330938 411.264063)scale(0.12 -0.12)">
      <use xlink:href="#DejaVuSans-83"/>
      <use x="63.476562" xlink:href="#DejaVuSans-116"/>
      <use x="102.685547" xlink:href="#DejaVuSans-97"/>
      <use x="163.964844" xlink:href="#DejaVuSans-105"/>
      <use x="191.748047" xlink:href="#DejaVuSans-110"/>
      <use x="255.126953" xlink:href="#DejaVuSans-105"/>
      <use x="282.910156" xlink:href="#DejaVuSans-110"/>
      <use x="346.289062" xlink:href="#DejaVuSans-103"/>
      <use x="409.765625" xlink:href="#DejaVuSans-32"/>
      <use x="441.552734" xlink:href="#DejaVuSans-80"/>
      <use x="500.105469" xlink:href="#DejaVuSans-114"/>
      <use x="538.96875" xlink:href="#DejaVuSans-111"/>
      <use x="600.150391" xlink:href="#DejaVuSans-116"/>
      <use x="639.359375" xlink:href="#DejaVuSans-111"/>
      <use x="700.541016" xlink:href="#DejaVuSans-99"/>
      <use x="755.521484" xlink:href="#DejaVuSans-111"/>
      <use x="816.703125" xlink:href="#DejaVuSans-108"/>
     </g>
    </g>
   </g>
   <g id="matplotlib.axis_2">
    <g id="ytick_1">
     <g id="line2d_3">
      <path d="M 90 372.608758 
L 648 372.608758 
" style="fill:none;stroke:#cccccc;stroke-linecap:round;stroke-opacity:0.5;"/>
     </g>
     <g id="text_4">
      <!-- −0.4 -->
      <defs>
       <path d="M 10.59375 35.5 
L 73.1875 35.5 
L 73.1875 27.203125 
L 10.59375 27.203125 
z
" id="DejaVuSans-8722"/>
       <path d="M 31.78125 66.40625 
Q 24.171875 66.40625 20.328125 58.90625 
Q 16.5 51.421875 16.5 36.375 
Q 16.5 21.390625 20.328125 13.890625 
Q 24.171875 6.390625 31.78125 6.390625 
Q 39.453125 6.390625 43.28125 13.890625 
Q 47.125 21.390625 47.125 36.375 
Q 47.125 51.421875 43.28125 58.90625 
Q 39.453125 66.40625 31.78125 66.40625 
z
M 31.78125 74.21875 
Q 44.046875 74.21875 50.515625 64.515625 
Q 56.984375 54.828125 56.984375 36.375 
Q 56.984375 17.96875 50.515625 8.265625 
Q 44.046875 -1.421875 31.78125 -1.421875 
Q 19.53125 -1.421875 13.0625 8.265625 
Q 6.59375 17.96875 6.59375 36.375 
Q 6.59375 54.828125 13.0625 64.515625 
Q 19.53125 74.21875 31.78125 74.21875 
z
" id="DejaVuSans-48"/>
       <path d="M 10.6875 12.40625 
L 21 12.40625 
L 21 0 
L 10.6875 0 
z
" id="DejaVuSans-46"/>
       <path d="M 37.796875 64.3125 
L 12.890625 25.390625 
L 37.796875 25.390625 
z
M 35.203125 72.90625 
L 47.609375 72.90625 
L 47.609375 25.390625 
L 58.015625 25.390625 
L 58.015625 17.1875 
L 47.609375 17.1875 
L 47.609375 0 
L 37.796875 0 
L 37.796875 17.1875 
L 4.890625 17.1875 
L 4.890625 26.703125 
z
" id="DejaVuSans-52"/>
      </defs>
      <g style="fill:#808080;" transform="translate(53.788906 376.787898)scale(0.11 -0.11)">
       <use xlink:href="#DejaVuSans-8722"/>
       <use x="83.789062" xlink:href="#DejaVuSans-48"/>
       <use x="147.412109" xlink:href="#DejaVuSans-46"/>
       <use x="179.199219" xlink:href="#DejaVuSans-52"/>
      </g>
     </g>
    </g>
    <g id="ytick_2">
     <g id="line2d_4">
      <path d="M 90 318.919241 
L 648 318.919241 
" style="fill:none;stroke:#cccccc;stroke-linecap:round;stroke-opacity:0.5;"/>
     </g>
     <g id="text_5">
      <!-- −0.2 -->
      <defs>
       <path d="M 19.1875 8.296875 
L 53.609375 8.296875 
L 53.609375 0 
L 7.328125 0 
L 7.328125 8.296875 
Q 12.9375 14.109375 22.625 23.890625 
Q 32.328125 33.6875 34.8125 36.53125 
Q 39.546875 41.84375 41.421875 45.53125 
Q 43.3125 49.21875 43.3125 52.78125 
Q 43.3125 58.59375 39.234375 62.25 
Q 35.15625 65.921875 28.609375 65.921875 
Q 23.96875 65.921875 18.8125 64.3125 
Q 13.671875 62.703125 7.8125 59.421875 
L 7.8125 69.390625 
Q 13.765625 71.78125 18.9375 73 
Q 24.125 74.21875 28.421875 74.21875 
Q 39.75 74.21875 46.484375 68.546875 
Q 53.21875 62.890625 53.21875 53.421875 
Q 53.21875 48.921875 51.53125 44.890625 
Q 49.859375 40.875 45.40625 35.40625 
Q 44.1875 33.984375 37.640625 27.21875 
Q 31.109375 20.453125 19.1875 8.296875 
z
" id="DejaVuSans-50"/>
      </defs>
      <g style="fill:#808080;" transform="translate(53.788906 323.098381)scale(0.11 -0.11)">
       <use xlink:href="#DejaVuSans-8722"/>
       <use x="83.789062" xlink:href="#DejaVuSans-48"/>
       <use x="147.412109" xlink:href="#DejaVuSans-46"/>
       <use x="179.199219" xlink:href="#DejaVuSans-50"/>
      </g>
     </g>
    </g>
    <g id="ytick_3">
     <g id="line2d_5">
      <path d="M 90 265.229724 
L 648 265.229724 
" style="fill:none;stroke:#cccccc;stroke-linecap:round;stroke-opacity:0.5;"/>
     </g>
     <g id="text_6">
      <!-- 0.0 -->
      <g style="fill:#808080;" transform="translate(63.006563 269.408864)scale(0.11 -0.11)">
       <use xlink:href="#DejaVuSans-48"/>
       <use x="63.623047" xlink:href="#DejaVuSans-46"/>
       <use x="95.410156" xlink:href="#DejaVuSans-48"/>
      </g>
     </g>
    </g>
    <g id="ytick_4">
     <g id="line2d_6">
      <path d="M 90 211.540207 
L 648 211.540207 
" style="fill:none;stroke:#cccccc;stroke-linecap:round;stroke-opacity:0.5;"/>
     </g>
     <g id="text_7">
      <!-- 0.2 -->
      <g style="fill:#808080;" transform="translate(63.006563 215.719347)scale(0.11 -0.11)">
       <use xlink:href="#DejaVuSans-48"/>
       <use x="63.623047" xlink:href="#DejaVuSans-46"/>
       <use x="95.410156" xlink:href="#DejaVuSans-50"/>
      </g>
     </g>
    </g>
    <g id="ytick_5">
     <g id="line2d_7">
      <path d="M 90 157.85069 
L 648 157.85069 
" style="fill:none;stroke:#cccccc;stroke-linecap:round;stroke-opacity:0.5;"/>
     </g>
     <g id="text_8">
      <!-- 0.4 -->
      <g style="fill:#808080;" transform="translate(63.006563 162.02983)scale(0.11 -0.11)">
       <use xlink:href="#DejaVuSans-48"/>
       <use x="63.623047" xlink:href="#DejaVuSans-46"/>
       <use x="95.410156" xlink:href="#DejaVuSans-52"/>
      </g>
     </g>
    </g>
    <g id="ytick_6">
     <g id="line2d_8">
      <path d="M 90 104.161173 
L 648 104.161173 
" style="fill:none;stroke:#cccccc;stroke-linecap:round;stroke-opacity:0.5;"/>
     </g>
     <g id="text_9">
      <!-- 0.6 -->
      <defs>
       <path d="M 33.015625 40.375 
Q 26.375 40.375 22.484375 35.828125 
Q 18.609375 31.296875 18.609375 23.390625 
Q 18.609375 15.53125 22.484375 10.953125 
Q 26.375 6.390625 33.015625 6.390625 
Q 39.65625 6.390625 43.53125 10.953125 
Q 47.40625 15.53125 47.40625 23.390625 
Q 47.40625 31.296875 43.53125 35.828125 
Q 39.65625 40.375 33.015625 40.375 
z
M 52.59375 71.296875 
L 52.59375 62.3125 
Q 48.875 64.0625 45.09375 64.984375 
Q 41.3125 65.921875 37.59375 65.921875 
Q 27.828125 65.921875 22.671875 59.328125 
Q 17.53125 52.734375 16.796875 39.40625 
Q 19.671875 43.65625 24.015625 45.921875 
Q 28.375 48.1875 33.59375 48.1875 
Q 44.578125 48.1875 50.953125 41.515625 
Q 57.328125 34.859375 57.328125 23.390625 
Q 57.328125 12.15625 50.6875 5.359375 
Q 44.046875 -1.421875 33.015625 -1.421875 
Q 20.359375 -1.421875 13.671875 8.265625 
Q 6.984375 17.96875 6.984375 36.375 
Q 6.984375 53.65625 15.1875 63.9375 
Q 23.390625 74.21875 37.203125 74.21875 
Q 40.921875 74.21875 44.703125 73.484375 
Q 48.484375 72.75 52.59375 71.296875 
z
" id="DejaVuSans-54"/>
      </defs>
      <g style="fill:#808080;" transform="translate(63.006563 108.340313)scale(0.11 -0.11)">
       <use xlink:href="#DejaVuSans-48"/>
       <use x="63.623047" xlink:href="#DejaVuSans-46"/>
       <use x="95.410156" xlink:href="#DejaVuSans-54"/>
      </g>
     </g>
    </g>
    <g id="text_10">
     <!-- Brown Intensity (25% top - 25% bottom) -->
     <defs>
      <path d="M 19.671875 34.8125 
L 19.671875 8.109375 
L 35.5 8.109375 
Q 43.453125 8.109375 47.28125 11.40625 
Q 51.125 14.703125 51.125 21.484375 
Q 51.125 28.328125 47.28125 31.5625 
Q 43.453125 34.8125 35.5 34.8125 
z
M 19.671875 64.796875 
L 19.671875 42.828125 
L 34.28125 42.828125 
Q 41.5 42.828125 45.03125 45.53125 
Q 48.578125 48.25 48.578125 53.8125 
Q 48.578125 59.328125 45.03125 62.0625 
Q 41.5 64.796875 34.28125 64.796875 
z
M 9.8125 72.90625 
L 35.015625 72.90625 
Q 46.296875 72.90625 52.390625 68.21875 
Q 58.5 63.53125 58.5 54.890625 
Q 58.5 48.1875 55.375 44.234375 
Q 52.25 40.28125 46.1875 39.3125 
Q 53.46875 37.75 57.5 32.78125 
Q 61.53125 27.828125 61.53125 20.40625 
Q 61.53125 10.640625 54.890625 5.3125 
Q 48.25 0 35.984375 0 
L 9.8125 0 
z
" id="DejaVuSans-66"/>
      <path d="M 4.203125 54.6875 
L 13.1875 54.6875 
L 24.421875 12.015625 
L 35.59375 54.6875 
L 46.1875 54.6875 
L 57.421875 12.015625 
L 68.609375 54.6875 
L 77.59375 54.6875 
L 63.28125 0 
L 52.6875 0 
L 40.921875 44.828125 
L 29.109375 0 
L 18.5 0 
z
" id="DejaVuSans-119"/>
      <path d="M 9.8125 72.90625 
L 19.671875 72.90625 
L 19.671875 0 
L 9.8125 0 
z
" id="DejaVuSans-73"/>
      <path d="M 32.171875 -5.078125 
Q 28.375 -14.84375 24.75 -17.8125 
Q 21.140625 -20.796875 15.09375 -20.796875 
L 7.90625 -20.796875 
L 7.90625 -13.28125 
L 13.1875 -13.28125 
Q 16.890625 -13.28125 18.9375 -11.515625 
Q 21 -9.765625 23.484375 -3.21875 
L 25.09375 0.875 
L 2.984375 54.6875 
L 12.5 54.6875 
L 29.59375 11.921875 
L 46.6875 54.6875 
L 56.203125 54.6875 
z
" id="DejaVuSans-121"/>
      <path d="M 31 75.875 
Q 24.46875 64.65625 21.28125 53.65625 
Q 18.109375 42.671875 18.109375 31.390625 
Q 18.109375 20.125 21.3125 9.0625 
Q 24.515625 -2 31 -13.1875 
L 23.1875 -13.1875 
Q 15.875 -1.703125 12.234375 9.375 
Q 8.59375 20.453125 8.59375 31.390625 
Q 8.59375 42.28125 12.203125 53.3125 
Q 15.828125 64.359375 23.1875 75.875 
z
" id="DejaVuSans-40"/>
      <path d="M 10.796875 72.90625 
L 49.515625 72.90625 
L 49.515625 64.59375 
L 19.828125 64.59375 
L 19.828125 46.734375 
Q 21.96875 47.46875 24.109375 47.828125 
Q 26.265625 48.1875 28.421875 48.1875 
Q 40.625 48.1875 47.75 41.5 
Q 54.890625 34.8125 54.890625 23.390625 
Q 54.890625 11.625 47.5625 5.09375 
Q 40.234375 -1.421875 26.90625 -1.421875 
Q 22.3125 -1.421875 17.546875 -0.640625 
Q 12.796875 0.140625 7.71875 1.703125 
L 7.71875 11.625 
Q 12.109375 9.234375 16.796875 8.0625 
Q 21.484375 6.890625 26.703125 6.890625 
Q 35.15625 6.890625 40.078125 11.328125 
Q 45.015625 15.765625 45.015625 23.390625 
Q 45.015625 31 40.078125 35.4375 
Q 35.15625 39.890625 26.703125 39.890625 
Q 22.75 39.890625 18.8125 39.015625 
Q 14.890625 38.140625 10.796875 36.28125 
z
" id="DejaVuSans-53"/>
      <path d="M 72.703125 32.078125 
Q 68.453125 32.078125 66.03125 28.46875 
Q 63.625 24.859375 63.625 18.40625 
Q 63.625 12.0625 66.03125 8.421875 
Q 68.453125 4.78125 72.703125 4.78125 
Q 76.859375 4.78125 79.265625 8.421875 
Q 81.6875 12.0625 81.6875 18.40625 
Q 81.6875 24.8125 79.265625 28.4375 
Q 76.859375 32.078125 72.703125 32.078125 
z
M 72.703125 38.28125 
Q 80.421875 38.28125 84.953125 32.90625 
Q 89.5 27.546875 89.5 18.40625 
Q 89.5 9.28125 84.9375 3.921875 
Q 80.375 -1.421875 72.703125 -1.421875 
Q 64.890625 -1.421875 60.34375 3.921875 
Q 55.8125 9.28125 55.8125 18.40625 
Q 55.8125 27.59375 60.375 32.9375 
Q 64.9375 38.28125 72.703125 38.28125 
z
M 22.3125 68.015625 
Q 18.109375 68.015625 15.6875 64.375 
Q 13.28125 60.75 13.28125 54.390625 
Q 13.28125 47.953125 15.671875 44.328125 
Q 18.0625 40.71875 22.3125 40.71875 
Q 26.5625 40.71875 28.96875 44.328125 
Q 31.390625 47.953125 31.390625 54.390625 
Q 31.390625 60.6875 28.953125 64.34375 
Q 26.515625 68.015625 22.3125 68.015625 
z
M 66.40625 74.21875 
L 74.21875 74.21875 
L 28.609375 -1.421875 
L 20.796875 -1.421875 
z
M 22.3125 74.21875 
Q 30.03125 74.21875 34.609375 68.875 
Q 39.203125 63.53125 39.203125 54.390625 
Q 39.203125 45.171875 34.640625 39.84375 
Q 30.078125 34.515625 22.3125 34.515625 
Q 14.546875 34.515625 10.03125 39.859375 
Q 5.515625 45.21875 5.515625 54.390625 
Q 5.515625 63.484375 10.046875 68.84375 
Q 14.59375 74.21875 22.3125 74.21875 
z
" id="DejaVuSans-37"/>
      <path d="M 4.890625 31.390625 
L 31.203125 31.390625 
L 31.203125 23.390625 
L 4.890625 23.390625 
z
" id="DejaVuSans-45"/>
      <path d="M 52 44.1875 
Q 55.375 50.25 60.0625 53.125 
Q 64.75 56 71.09375 56 
Q 79.640625 56 84.28125 50.015625 
Q 88.921875 44.046875 88.921875 33.015625 
L 88.921875 0 
L 79.890625 0 
L 79.890625 32.71875 
Q 79.890625 40.578125 77.09375 44.375 
Q 74.3125 48.1875 68.609375 48.1875 
Q 61.625 48.1875 57.5625 43.546875 
Q 53.515625 38.921875 53.515625 30.90625 
L 53.515625 0 
L 44.484375 0 
L 44.484375 32.71875 
Q 44.484375 40.625 41.703125 44.40625 
Q 38.921875 48.1875 33.109375 48.1875 
Q 26.21875 48.1875 22.15625 43.53125 
Q 18.109375 38.875 18.109375 30.90625 
L 18.109375 0 
L 9.078125 0 
L 9.078125 54.6875 
L 18.109375 54.6875 
L 18.109375 46.1875 
Q 21.1875 51.21875 25.484375 53.609375 
Q 29.78125 56 35.6875 56 
Q 41.65625 56 45.828125 52.96875 
Q 50 49.953125 52 44.1875 
z
" id="DejaVuSans-109"/>
      <path d="M 8.015625 75.875 
L 15.828125 75.875 
Q 23.140625 64.359375 26.78125 53.3125 
Q 30.421875 42.28125 30.421875 31.390625 
Q 30.421875 20.453125 26.78125 9.375 
Q 23.140625 -1.703125 15.828125 -13.1875 
L 8.015625 -13.1875 
Q 14.5 -2 17.703125 9.0625 
Q 20.90625 20.125 20.90625 31.390625 
Q 20.90625 42.671875 17.703125 53.65625 
Q 14.5 64.65625 8.015625 75.875 
z
" id="DejaVuSans-41"/>
     </defs>
     <g style="fill:#808080;" transform="translate(47.293281 336.35625)rotate(-90)scale(0.12 -0.12)">
      <use xlink:href="#DejaVuSans-66"/>
      <use x="68.603516" xlink:href="#DejaVuSans-114"/>
      <use x="107.466797" xlink:href="#DejaVuSans-111"/>
      <use x="168.648438" xlink:href="#DejaVuSans-119"/>
      <use x="250.435547" xlink:href="#DejaVuSans-110"/>
      <use x="313.814453" xlink:href="#DejaVuSans-32"/>
      <use x="345.601562" xlink:href="#DejaVuSans-73"/>
      <use x="375.09375" xlink:href="#DejaVuSans-110"/>
      <use x="438.472656" xlink:href="#DejaVuSans-116"/>
      <use x="477.681641" xlink:href="#DejaVuSans-101"/>
      <use x="539.205078" xlink:href="#DejaVuSans-110"/>
      <use x="602.583984" xlink:href="#DejaVuSans-115"/>
      <use x="654.683594" xlink:href="#DejaVuSans-105"/>
      <use x="682.466797" xlink:href="#DejaVuSans-116"/>
      <use x="721.675781" xlink:href="#DejaVuSans-121"/>
      <use x="780.855469" xlink:href="#DejaVuSans-32"/>
      <use x="812.642578" xlink:href="#DejaVuSans-40"/>
      <use x="851.65625" xlink:href="#DejaVuSans-50"/>
      <use x="915.279297" xlink:href="#DejaVuSans-53"/>
      <use x="978.902344" xlink:href="#DejaVuSans-37"/>
      <use x="1073.921875" xlink:href="#DejaVuSans-32"/>
      <use x="1105.708984" xlink:href="#DejaVuSans-116"/>
      <use x="1144.917969" xlink:href="#DejaVuSans-111"/>
      <use x="1206.099609" xlink:href="#DejaVuSans-112"/>
      <use x="1269.576172" xlink:href="#DejaVuSans-32"/>
      <use x="1301.363281" xlink:href="#DejaVuSans-45"/>
      <use x="1337.447266" xlink:href="#DejaVuSans-32"/>
      <use x="1369.234375" xlink:href="#DejaVuSans-50"/>
      <use x="1432.857422" xlink:href="#DejaVuSans-53"/>
      <use x="1496.480469" xlink:href="#DejaVuSans-37"/>
      <use x="1591.5" xlink:href="#DejaVuSans-32"/>
      <use x="1623.287109" xlink:href="#DejaVuSans-98"/>
      <use x="1686.763672" xlink:href="#DejaVuSans-111"/>
      <use x="1747.945312" xlink:href="#DejaVuSans-116"/>
      <use x="1787.154297" xlink:href="#DejaVuSans-116"/>
      <use x="1826.363281" xlink:href="#DejaVuSans-111"/>
      <use x="1887.544922" xlink:href="#DejaVuSans-109"/>
      <use x="1984.957031" xlink:href="#DejaVuSans-41"/>
     </g>
    </g>
   </g>
   <g id="PolyCollection_1">
    <defs>
     <path d="M 230.030549 -101.669151 
L 228.969451 -101.669151 
L 228.792726 -104.153485 
L 228.567798 -106.63782 
L 228.284906 -109.122155 
L 227.93326 -111.60649 
L 227.501197 -114.090824 
L 226.976442 -116.575159 
L 226.346482 -119.059494 
L 225.599103 -121.543829 
L 224.723076 -124.028164 
L 223.709017 -126.512498 
L 222.550406 -128.996833 
L 221.244729 -131.481168 
L 219.794683 -133.965503 
L 218.20936 -136.449837 
L 216.505272 -138.934172 
L 214.707099 -141.418507 
L 212.847995 -143.902842 
L 210.969322 -146.387176 
L 209.11971 -148.871511 
L 207.353383 -151.355846 
L 205.727786 -153.840181 
L 204.300618 -156.324515 
L 203.126447 -158.80885 
L 202.253195 -161.293185 
L 201.71878 -163.77752 
L 201.548248 -166.261854 
L 201.751694 -168.746189 
L 202.323196 -171.230524 
L 203.240906 -173.714859 
L 204.468316 -176.199193 
L 205.956586 -178.683528 
L 207.647738 -181.167863 
L 209.478406 -183.652198 
L 211.383807 -186.136533 
L 213.301575 -188.620867 
L 215.175145 -191.105202 
L 216.956434 -193.589537 
L 218.607661 -196.073872 
L 220.10223 -198.558206 
L 221.424726 -201.042541 
L 222.570111 -203.526876 
L 223.542312 -206.011211 
L 224.352386 -208.495545 
L 225.01648 -210.97988 
L 225.553786 -213.464215 
L 225.984653 -215.94855 
L 226.32898 -218.432884 
L 226.604975 -220.917219 
L 226.82831 -223.401554 
L 227.011662 -225.885889 
L 227.164617 -228.370223 
L 227.293853 -230.854558 
L 227.403542 -233.338893 
L 227.495884 -235.823228 
L 227.571695 -238.307562 
L 227.630985 -240.791897 
L 227.673462 -243.276232 
L 227.698936 -245.760567 
L 227.70759 -248.244902 
L 227.700136 -250.729236 
L 227.677835 -253.213571 
L 227.642436 -255.697906 
L 227.596041 -258.182241 
L 227.540941 -260.666575 
L 227.479444 -263.15091 
L 227.413728 -265.635245 
L 227.345745 -268.11958 
L 227.277169 -270.603914 
L 227.209406 -273.088249 
L 227.143663 -275.572584 
L 227.081037 -278.056919 
L 227.022642 -280.541253 
L 226.969713 -283.025588 
L 226.923705 -285.509923 
L 226.886333 -287.994258 
L 226.859568 -290.478592 
L 226.845568 -292.962927 
L 226.84655 -295.447262 
L 226.864622 -297.931597 
L 226.901585 -300.415931 
L 226.95873 -302.900266 
L 227.036662 -305.384601 
L 227.135167 -307.868936 
L 227.253137 -310.353271 
L 227.388579 -312.837605 
L 227.538694 -315.32194 
L 227.700028 -317.806275 
L 227.868678 -320.29061 
L 228.040529 -322.774944 
L 228.211503 -325.259279 
L 228.37779 -327.743614 
L 228.536045 -330.227949 
L 228.683541 -332.712283 
L 228.818249 -335.196618 
L 228.938874 -337.680953 
L 229.044825 -340.165288 
L 229.136146 -342.649622 
L 229.213408 -345.133957 
L 229.277591 -347.618292 
L 229.722409 -347.618292 
L 229.722409 -347.618292 
L 229.786592 -345.133957 
L 229.863854 -342.649622 
L 229.955175 -340.165288 
L 230.061126 -337.680953 
L 230.181751 -335.196618 
L 230.316459 -332.712283 
L 230.463955 -330.227949 
L 230.62221 -327.743614 
L 230.788497 -325.259279 
L 230.959471 -322.774944 
L 231.131322 -320.29061 
L 231.299972 -317.806275 
L 231.461306 -315.32194 
L 231.611421 -312.837605 
L 231.746863 -310.353271 
L 231.864833 -307.868936 
L 231.963338 -305.384601 
L 232.04127 -302.900266 
L 232.098415 -300.415931 
L 232.135378 -297.931597 
L 232.15345 -295.447262 
L 232.154432 -292.962927 
L 232.140432 -290.478592 
L 232.113667 -287.994258 
L 232.076295 -285.509923 
L 232.030287 -283.025588 
L 231.977358 -280.541253 
L 231.918963 -278.056919 
L 231.856337 -275.572584 
L 231.790594 -273.088249 
L 231.722831 -270.603914 
L 231.654255 -268.11958 
L 231.586272 -265.635245 
L 231.520556 -263.15091 
L 231.459059 -260.666575 
L 231.403959 -258.182241 
L 231.357564 -255.697906 
L 231.322165 -253.213571 
L 231.299864 -250.729236 
L 231.29241 -248.244902 
L 231.301064 -245.760567 
L 231.326538 -243.276232 
L 231.369015 -240.791897 
L 231.428305 -238.307562 
L 231.504116 -235.823228 
L 231.596458 -233.338893 
L 231.706147 -230.854558 
L 231.835383 -228.370223 
L 231.988338 -225.885889 
L 232.17169 -223.401554 
L 232.395025 -220.917219 
L 232.67102 -218.432884 
L 233.015347 -215.94855 
L 233.446214 -213.464215 
L 233.98352 -210.97988 
L 234.647614 -208.495545 
L 235.457688 -206.011211 
L 236.429889 -203.526876 
L 237.575274 -201.042541 
L 238.89777 -198.558206 
L 240.392339 -196.073872 
L 242.043566 -193.589537 
L 243.824855 -191.105202 
L 245.698425 -188.620867 
L 247.616193 -186.136533 
L 249.521594 -183.652198 
L 251.352262 -181.167863 
L 253.043414 -178.683528 
L 254.531684 -176.199193 
L 255.759094 -173.714859 
L 256.676804 -171.230524 
L 257.248306 -168.746189 
L 257.451752 -166.261854 
L 257.28122 -163.77752 
L 256.746805 -161.293185 
L 255.873553 -158.80885 
L 254.699382 -156.324515 
L 253.272214 -153.840181 
L 251.646617 -151.355846 
L 249.88029 -148.871511 
L 248.030678 -146.387176 
L 246.152005 -143.902842 
L 244.292901 -141.418507 
L 242.494728 -138.934172 
L 240.79064 -136.449837 
L 239.205317 -133.965503 
L 237.755271 -131.481168 
L 236.449594 -128.996833 
L 235.290983 -126.512498 
L 234.276924 -124.028164 
L 233.400897 -121.543829 
L 232.653518 -119.059494 
L 232.023558 -116.575159 
L 231.498803 -114.090824 
L 231.06674 -111.60649 
L 230.715094 -109.122155 
L 230.432202 -106.63782 
L 230.207274 -104.153485 
L 230.030549 -101.669151 
z
" id="mdb07a11055" style="stroke:#5c5c5c;stroke-width:0.5;"/>
    </defs>
    <g clip-path="url(#pcd6109b8e8)">
     <use style="fill:#4de64d;stroke:#5c5c5c;stroke-width:0.5;" x="0" xlink:href="#mdb07a11055" y="432"/>
    </g>
   </g>
   <g id="PolyCollection_2">
    <defs>
     <path d="M 509.042258 -118.162222 
L 507.957742 -118.162222 
L 507.729814 -118.927042 
L 507.442457 -119.691862 
L 507.096176 -120.456681 
L 506.698476 -121.221501 
L 506.264989 -121.986321 
L 505.8194 -122.751141 
L 505.391887 -123.515961 
L 505.016033 -124.280781 
L 504.724592 -125.0456 
L 504.544821 -125.81042 
L 504.494277 -126.57524 
L 504.577994 -127.34006 
L 504.787656 -128.10488 
L 505.102957 -128.8697 
L 505.494843 -129.634519 
L 505.929907 -130.399339 
L 506.37504 -131.164159 
L 506.80141 -131.928979 
L 507.187178 -132.693799 
L 507.518638 -133.458619 
L 507.789892 -134.223438 
L 508.001411 -134.988258 
L 508.157964 -135.753078 
L 508.266387 -136.517898 
L 508.333537 -137.282718 
L 508.364651 -138.047538 
L 508.36218 -138.812357 
L 508.325099 -139.577177 
L 508.248685 -140.341997 
L 508.124743 -141.106817 
L 507.942348 -141.871637 
L 507.6891 -142.636457 
L 507.352916 -143.401276 
L 506.92423 -144.166096 
L 506.398349 -144.930916 
L 505.777563 -145.695736 
L 505.072497 -146.460556 
L 504.302201 -147.225376 
L 503.492577 -147.990195 
L 502.672969 -148.755015 
L 501.871067 -149.519835 
L 501.106548 -150.284655 
L 500.384109 -151.049475 
L 499.686618 -151.814295 
L 498.969027 -152.579114 
L 498.153513 -153.343934 
L 497.126179 -154.108754 
L 495.735679 -154.873574 
L 493.794447 -155.638394 
L 491.083813 -156.403214 
L 487.364957 -157.168033 
L 482.398018 -157.932853 
L 475.971178 -158.697673 
L 467.939872 -159.462493 
L 458.273221 -160.227313 
L 447.10101 -160.992133 
L 434.750962 -161.756952 
L 421.764274 -162.521772 
L 408.878652 -163.286592 
L 396.973044 -164.051412 
L 386.976319 -164.816232 
L 379.751497 -165.581052 
L 375.975 -166.345871 
L 376.034213 -167.110691 
L 379.964709 -167.875511 
L 387.440865 -168.640331 
L 397.822229 -169.405151 
L 410.245944 -170.169971 
L 423.746207 -170.93479 
L 437.377453 -171.69961 
L 450.319522 -172.46443 
L 461.94941 -173.22925 
L 471.873151 -173.99407 
L 479.920213 -174.75889 
L 486.109437 -175.523709 
L 490.59888 -176.288529 
L 493.631819 -177.053349 
L 495.488611 -177.818169 
L 496.450193 -178.582989 
L 496.775005 -179.347809 
L 496.687908 -180.112628 
L 496.377733 -180.877448 
L 495.999477 -181.642268 
L 495.677667 -182.407088 
L 495.508669 -183.171908 
L 495.561161 -183.936728 
L 495.875314 -184.701547 
L 496.462025 -185.466367 
L 497.303694 -186.231187 
L 498.357598 -186.996007 
L 499.562128 -187.760827 
L 500.845212 -188.525647 
L 502.133635 -189.290466 
L 503.361656 -190.055286 
L 504.47755 -190.820106 
L 505.447215 -191.584926 
L 506.2547 -192.349746 
L 506.900125 -193.114566 
L 507.395887 -193.879385 
L 509.604113 -193.879385 
L 509.604113 -193.879385 
L 510.099875 -193.114566 
L 510.7453 -192.349746 
L 511.552785 -191.584926 
L 512.52245 -190.820106 
L 513.638344 -190.055286 
L 514.866365 -189.290466 
L 516.154788 -188.525647 
L 517.437872 -187.760827 
L 518.642402 -186.996007 
L 519.696306 -186.231187 
L 520.537975 -185.466367 
L 521.124686 -184.701547 
L 521.438839 -183.936728 
L 521.491331 -183.171908 
L 521.322333 -182.407088 
L 521.000523 -181.642268 
L 520.622267 -180.877448 
L 520.312092 -180.112628 
L 520.224995 -179.347809 
L 520.549807 -178.582989 
L 521.511389 -177.818169 
L 523.368181 -177.053349 
L 526.40112 -176.288529 
L 530.890563 -175.523709 
L 537.079787 -174.75889 
L 545.126849 -173.99407 
L 555.05059 -173.22925 
L 566.680478 -172.46443 
L 579.622547 -171.69961 
L 593.253793 -170.93479 
L 606.754056 -170.169971 
L 619.177771 -169.405151 
L 629.559135 -168.640331 
L 637.035291 -167.875511 
L 640.965787 -167.110691 
L 641.025 -166.345871 
L 637.248503 -165.581052 
L 630.023681 -164.816232 
L 620.026956 -164.051412 
L 608.121348 -163.286592 
L 595.235726 -162.521772 
L 582.249038 -161.756952 
L 569.89899 -160.992133 
L 558.726779 -160.227313 
L 549.060128 -159.462493 
L 541.028822 -158.697673 
L 534.601982 -157.932853 
L 529.635043 -157.168033 
L 525.916187 -156.403214 
L 523.205553 -155.638394 
L 521.264321 -154.873574 
L 519.873821 -154.108754 
L 518.846487 -153.343934 
L 518.030973 -152.579114 
L 517.313382 -151.814295 
L 516.615891 -151.049475 
L 515.893452 -150.284655 
L 515.128933 -149.519835 
L 514.327031 -148.755015 
L 513.507423 -147.990195 
L 512.697799 -147.225376 
L 511.927503 -146.460556 
L 511.222437 -145.695736 
L 510.601651 -144.930916 
L 510.07577 -144.166096 
L 509.647084 -143.401276 
L 509.3109 -142.636457 
L 509.057652 -141.871637 
L 508.875257 -141.106817 
L 508.751315 -140.341997 
L 508.674901 -139.577177 
L 508.63782 -138.812357 
L 508.635349 -138.047538 
L 508.666463 -137.282718 
L 508.733613 -136.517898 
L 508.842036 -135.753078 
L 508.998589 -134.988258 
L 509.210108 -134.223438 
L 509.481362 -133.458619 
L 509.812822 -132.693799 
L 510.19859 -131.928979 
L 510.62496 -131.164159 
L 511.070093 -130.399339 
L 511.505157 -129.634519 
L 511.897043 -128.8697 
L 512.212344 -128.10488 
L 512.422006 -127.34006 
L 512.505723 -126.57524 
L 512.455179 -125.81042 
L 512.275408 -125.0456 
L 511.983967 -124.280781 
L 511.608113 -123.515961 
L 511.1806 -122.751141 
L 510.735011 -121.986321 
L 510.301524 -121.221501 
L 509.903824 -120.456681 
L 509.557543 -119.691862 
L 509.270186 -118.927042 
L 509.042258 -118.162222 
z
" id="m3041e57722" style="stroke:#5c5c5c;stroke-width:0.5;"/>
    </defs>
    <g clip-path="url(#pcd6109b8e8)">
     <use style="fill:#e7d6b8;stroke:#5c5c5c;stroke-width:0.5;" x="0" xlink:href="#m3041e57722" y="432"/>
    </g>
   </g>
   <g id="line2d_9">
    <path clip-path="url(#pcd6109b8e8)" d="M 201.827766 265.899115 
L 257.172234 265.899115 
" style="fill:none;stroke:#5c5c5c;stroke-dasharray:0.375,0.375;stroke-dashoffset:0;stroke-width:0.5;"/>
   </g>
   <g id="line2d_10">
    <path clip-path="url(#pcd6109b8e8)" d="M 201.827766 265.215532 
L 257.172234 265.215532 
" style="fill:none;stroke:#5c5c5c;stroke-dasharray:0.75,0.75;stroke-dashoffset:0;stroke-width:0.5;"/>
   </g>
   <g id="line2d_11">
    <path clip-path="url(#pcd6109b8e8)" d="M 202.594964 260.676101 
L 256.405036 260.676101 
" style="fill:none;stroke:#5c5c5c;stroke-dasharray:0.375,0.375;stroke-dashoffset:0;stroke-width:0.5;"/>
   </g>
   <g id="line2d_12">
    <path clip-path="url(#pcd6109b8e8)" d="M 377.30025 266.026558 
L 639.69975 266.026558 
" style="fill:none;stroke:#5c5c5c;stroke-dasharray:0.375,0.375;stroke-dashoffset:0;stroke-width:0.5;"/>
   </g>
   <g id="line2d_13">
    <path clip-path="url(#pcd6109b8e8)" d="M 377.358871 265.225415 
L 639.641129 265.225415 
" style="fill:none;stroke:#5c5c5c;stroke-dasharray:0.75,0.75;stroke-dashoffset:0;stroke-width:0.5;"/>
   </g>
   <g id="line2d_14">
    <path clip-path="url(#pcd6109b8e8)" d="M 377.358871 264.763143 
L 639.641129 264.763143 
" style="fill:none;stroke:#5c5c5c;stroke-dasharray:0.375,0.375;stroke-dashoffset:0;stroke-width:0.5;"/>
   </g>
   <g id="patch_3">
    <path d="M 90 378 
L 90 51.84 
" style="fill:none;stroke:#262626;stroke-linecap:square;stroke-linejoin:miter;stroke-width:1.25;"/>
   </g>
   <g id="patch_4">
    <path d="M 648 378 
L 648 51.84 
" style="fill:none;stroke:#262626;stroke-linecap:square;stroke-linejoin:miter;stroke-width:1.25;"/>
   </g>
   <g id="patch_5">
    <path d="M 90 378 
L 648 378 
" style="fill:none;stroke:#262626;stroke-linecap:square;stroke-linejoin:miter;stroke-width:1.25;"/>
   </g>
   <g id="patch_6">
    <path d="M 90 51.84 
L 648 51.84 
" style="fill:none;stroke:#262626;stroke-linecap:square;stroke-linejoin:miter;stroke-width:1.25;"/>
   </g>
   <g id="PathCollection_1">
    <defs>
     <path d="M 0 2.5 
C 0.663008 2.5 1.29895 2.236584 1.767767 1.767767 
C 2.236584 1.29895 2.5 0.663008 2.5 0 
C 2.5 -0.663008 2.236584 -1.29895 1.767767 -1.767767 
C 1.29895 -2.236584 0.663008 -2.5 0 -2.5 
C -0.663008 -2.5 -1.29895 -2.236584 -1.767767 -1.767767 
C -2.236584 -1.29895 -2.5 -0.663008 -2.5 0 
C -2.5 0.663008 -2.236584 1.29895 -1.767767 1.767767 
C -1.29895 2.236584 -0.663008 2.5 0 2.5 
z
" id="C0_0_3bc6b26554"/>
    </defs>
    <g clip-path="url(#pcd6109b8e8)">
     <use style="fill:#0000ff;fill-opacity:0.2;" x="229.5" xlink:href="#C0_0_3bc6b26554" y="290.392557"/>
    </g>
    <g clip-path="url(#pcd6109b8e8)">
     <use style="fill:#0000ff;fill-opacity:0.2;" x="224.250167" xlink:href="#C0_0_3bc6b26554" y="290.352675"/>
    </g>
    <g clip-path="url(#pcd6109b8e8)">
     <use style="fill:#0000ff;fill-opacity:0.2;" x="229.5" xlink:href="#C0_0_3bc6b26554" y="285.347795"/>
    </g>
    <g clip-path="url(#pcd6109b8e8)">
     <use style="fill:#0000ff;fill-opacity:0.2;" x="224.293932" xlink:href="#C0_0_3bc6b26554" y="284.702311"/>
    </g>
    <g clip-path="url(#pcd6109b8e8)">
     <use style="fill:#0000ff;fill-opacity:0.2;" x="229.5" xlink:href="#C0_0_3bc6b26554" y="269.884633"/>
    </g>
    <g clip-path="url(#pcd6109b8e8)">
     <use style="fill:#0000ff;fill-opacity:0.2;" x="224.25" xlink:href="#C0_0_3bc6b26554" y="269.884633"/>
    </g>
    <g clip-path="url(#pcd6109b8e8)">
     <use style="fill:#0000ff;fill-opacity:0.2;" x="234.651589" xlink:href="#C0_0_3bc6b26554" y="268.921066"/>
    </g>
    <g clip-path="url(#pcd6109b8e8)">
     <use style="fill:#0000ff;fill-opacity:0.2;" x="219.680563" xlink:href="#C0_0_3bc6b26554" y="267.422632"/>
    </g>
    <g clip-path="url(#pcd6109b8e8)">
     <use style="fill:#0000ff;fill-opacity:0.2;" x="238.834204" xlink:href="#C0_0_3bc6b26554" y="265.899115"/>
    </g>
    <g clip-path="url(#pcd6109b8e8)">
     <use style="fill:#0000ff;fill-opacity:0.2;" x="244.084204" xlink:href="#C0_0_3bc6b26554" y="265.899115"/>
    </g>
    <g clip-path="url(#pcd6109b8e8)">
     <use style="fill:#0000ff;fill-opacity:0.2;" x="227.355211" xlink:href="#C0_0_3bc6b26554" y="265.320912"/>
    </g>
    <g clip-path="url(#pcd6109b8e8)">
     <use style="fill:#0000ff;fill-opacity:0.2;" x="214.916898" xlink:href="#C0_0_3bc6b26554" y="265.320912"/>
    </g>
    <g clip-path="url(#pcd6109b8e8)">
     <use style="fill:#0000ff;fill-opacity:0.2;" x="249.286942" xlink:href="#C0_0_3bc6b26554" y="265.229724"/>
    </g>
    <g clip-path="url(#pcd6109b8e8)">
     <use style="fill:#0000ff;fill-opacity:0.2;" x="209.667771" xlink:href="#C0_0_3bc6b26554" y="265.229724"/>
    </g>
    <g clip-path="url(#pcd6109b8e8)">
     <use style="fill:#0000ff;fill-opacity:0.2;" x="254.536942" xlink:href="#C0_0_3bc6b26554" y="265.229724"/>
    </g>
    <g clip-path="url(#pcd6109b8e8)">
     <use style="fill:#0000ff;fill-opacity:0.2;" x="204.417771" xlink:href="#C0_0_3bc6b26554" y="265.229724"/>
    </g>
    <g clip-path="url(#pcd6109b8e8)">
     <use style="fill:#0000ff;fill-opacity:0.2;" x="259.786942" xlink:href="#C0_0_3bc6b26554" y="265.229724"/>
    </g>
    <g clip-path="url(#pcd6109b8e8)">
     <use style="fill:#0000ff;fill-opacity:0.2;" x="199.167771" xlink:href="#C0_0_3bc6b26554" y="265.229724"/>
    </g>
    <g clip-path="url(#pcd6109b8e8)">
     <use style="fill:#0000ff;fill-opacity:0.2;" x="265.036921" xlink:href="#C0_0_3bc6b26554" y="265.215532"/>
    </g>
    <g clip-path="url(#pcd6109b8e8)">
     <use style="fill:#0000ff;fill-opacity:0.2;" x="232.268574" xlink:href="#C0_0_3bc6b26554" y="263.559298"/>
    </g>
    <g clip-path="url(#pcd6109b8e8)">
     <use style="fill:#0000ff;fill-opacity:0.2;" x="194.288519" xlink:href="#C0_0_3bc6b26554" y="263.384119"/>
    </g>
    <g clip-path="url(#pcd6109b8e8)">
     <use style="fill:#0000ff;fill-opacity:0.2;" x="222.751688" xlink:href="#C0_0_3bc6b26554" y="262.917196"/>
    </g>
    <g clip-path="url(#pcd6109b8e8)">
     <use style="fill:#0000ff;fill-opacity:0.2;" x="269.691512" xlink:href="#C0_0_3bc6b26554" y="262.902739"/>
    </g>
    <g clip-path="url(#pcd6109b8e8)">
     <use style="fill:#0000ff;fill-opacity:0.2;" x="189.147573" xlink:href="#C0_0_3bc6b26554" y="262.370304"/>
    </g>
    <g clip-path="url(#pcd6109b8e8)">
     <use style="fill:#0000ff;fill-opacity:0.2;" x="274.891188" xlink:href="#C0_0_3bc6b26554" y="262.212101"/>
    </g>
    <g clip-path="url(#pcd6109b8e8)">
     <use style="fill:#0000ff;fill-opacity:0.2;" x="183.902532" xlink:href="#C0_0_3bc6b26554" y="262.153035"/>
    </g>
    <g clip-path="url(#pcd6109b8e8)">
     <use style="fill:#0000ff;fill-opacity:0.2;" x="241.35008" xlink:href="#C0_0_3bc6b26554" y="261.510626"/>
    </g>
    <g clip-path="url(#pcd6109b8e8)">
     <use style="fill:#0000ff;fill-opacity:0.2;" x="218.058589" xlink:href="#C0_0_3bc6b26554" y="260.676101"/>
    </g>
    <g clip-path="url(#pcd6109b8e8)">
     <use style="fill:#0000ff;fill-opacity:0.2;" x="212.809645" xlink:href="#C0_0_3bc6b26554" y="260.5758"/>
    </g>
    <g clip-path="url(#pcd6109b8e8)">
     <use style="fill:#0000ff;fill-opacity:0.2;" x="229.5" xlink:href="#C0_0_3bc6b26554" y="258.948023"/>
    </g>
    <g clip-path="url(#pcd6109b8e8)">
     <use style="fill:#0000ff;fill-opacity:0.2;" x="226.743471" xlink:href="#C0_0_3bc6b26554" y="254.692676"/>
    </g>
    <g clip-path="url(#pcd6109b8e8)">
     <use style="fill:#0000ff;fill-opacity:0.2;" x="229.5" xlink:href="#C0_0_3bc6b26554" y="214.783839"/>
    </g>
    <g clip-path="url(#pcd6109b8e8)">
     <use style="fill:#0000ff;fill-opacity:0.2;" x="229.5" xlink:href="#C0_0_3bc6b26554" y="209.705826"/>
    </g>
    <g clip-path="url(#pcd6109b8e8)">
     <use style="fill:#0000ff;fill-opacity:0.2;" x="229.5" xlink:href="#C0_0_3bc6b26554" y="170.651743"/>
    </g>
    <g clip-path="url(#pcd6109b8e8)">
     <use style="fill:#0000ff;fill-opacity:0.2;" x="229.5" xlink:href="#C0_0_3bc6b26554" y="151.448067"/>
    </g>
    <g clip-path="url(#pcd6109b8e8)">
     <use style="fill:#0000ff;fill-opacity:0.2;" x="229.5" xlink:href="#C0_0_3bc6b26554" y="128.168066"/>
    </g>
    <g clip-path="url(#pcd6109b8e8)">
     <use style="fill:#0000ff;fill-opacity:0.2;" x="226.147821" xlink:href="#C0_0_3bc6b26554" y="124.32"/>
    </g>
   </g>
   <g id="PathCollection_2">
    <defs>
     <path d="M 0 2.5 
C 0.663008 2.5 1.29895 2.236584 1.767767 1.767767 
C 2.236584 1.29895 2.5 0.663008 2.5 0 
C 2.5 -0.663008 2.236584 -1.29895 1.767767 -1.767767 
C 1.29895 -2.236584 0.663008 -2.5 0 -2.5 
C -0.663008 -2.5 -1.29895 -2.236584 -1.767767 -1.767767 
C -2.236584 -1.29895 -2.5 -0.663008 -2.5 0 
C -2.5 0.663008 -2.236584 1.29895 -1.767767 1.767767 
C -1.29895 2.236584 -0.663008 2.5 0 2.5 
z
" id="C1_0_a39ac59d7c"/>
    </defs>
    <g clip-path="url(#pcd6109b8e8)">
     <use style="fill:#0000ff;fill-opacity:0.2;" x="508.5" xlink:href="#C1_0_a39ac59d7c" y="305.52"/>
    </g>
    <g clip-path="url(#pcd6109b8e8)">
     <use style="fill:#0000ff;fill-opacity:0.2;" x="508.5" xlink:href="#C1_0_a39ac59d7c" y="281.600306"/>
    </g>
    <g clip-path="url(#pcd6109b8e8)">
     <use style="fill:#0000ff;fill-opacity:0.2;" x="504.700482" xlink:href="#C1_0_a39ac59d7c" y="278.149825"/>
    </g>
    <g clip-path="url(#pcd6109b8e8)">
     <use style="fill:#0000ff;fill-opacity:0.2;" x="508.5" xlink:href="#C1_0_a39ac59d7c" y="272.286146"/>
    </g>
    <g clip-path="url(#pcd6109b8e8)">
     <use style="fill:#0000ff;fill-opacity:0.2;" x="503.292489" xlink:href="#C1_0_a39ac59d7c" y="271.65131"/>
    </g>
    <g clip-path="url(#pcd6109b8e8)">
     <use style="fill:#0000ff;fill-opacity:0.2;" x="511.961721" xlink:href="#C1_0_a39ac59d7c" y="268.527077"/>
    </g>
    <g clip-path="url(#pcd6109b8e8)">
     <use style="fill:#0000ff;fill-opacity:0.2;" x="506.886907" xlink:href="#C1_0_a39ac59d7c" y="267.246219"/>
    </g>
    <g clip-path="url(#pcd6109b8e8)">
     <use style="fill:#0000ff;fill-opacity:0.2;" x="501.711087" xlink:href="#C1_0_a39ac59d7c" y="266.883536"/>
    </g>
    <g clip-path="url(#pcd6109b8e8)">
     <use style="fill:#0000ff;fill-opacity:0.2;" x="516.837504" xlink:href="#C1_0_a39ac59d7c" y="266.673175"/>
    </g>
    <g clip-path="url(#pcd6109b8e8)">
     <use style="fill:#0000ff;fill-opacity:0.2;" x="496.468539" xlink:href="#C1_0_a39ac59d7c" y="266.617234"/>
    </g>
    <g clip-path="url(#pcd6109b8e8)">
     <use style="fill:#0000ff;fill-opacity:0.2;" x="522.080318" xlink:href="#C1_0_a39ac59d7c" y="266.411663"/>
    </g>
    <g clip-path="url(#pcd6109b8e8)">
     <use style="fill:#0000ff;fill-opacity:0.2;" x="491.319485" xlink:href="#C1_0_a39ac59d7c" y="265.641454"/>
    </g>
    <g clip-path="url(#pcd6109b8e8)">
     <use style="fill:#0000ff;fill-opacity:0.2;" x="527.183037" xlink:href="#C1_0_a39ac59d7c" y="265.235651"/>
    </g>
    <g clip-path="url(#pcd6109b8e8)">
     <use style="fill:#0000ff;fill-opacity:0.2;" x="486.087315" xlink:href="#C1_0_a39ac59d7c" y="265.229724"/>
    </g>
    <g clip-path="url(#pcd6109b8e8)">
     <use style="fill:#0000ff;fill-opacity:0.2;" x="532.433033" xlink:href="#C1_0_a39ac59d7c" y="265.229724"/>
    </g>
    <g clip-path="url(#pcd6109b8e8)">
     <use style="fill:#0000ff;fill-opacity:0.2;" x="480.837315" xlink:href="#C1_0_a39ac59d7c" y="265.229724"/>
    </g>
    <g clip-path="url(#pcd6109b8e8)">
     <use style="fill:#0000ff;fill-opacity:0.2;" x="537.683033" xlink:href="#C1_0_a39ac59d7c" y="265.229724"/>
    </g>
    <g clip-path="url(#pcd6109b8e8)">
     <use style="fill:#0000ff;fill-opacity:0.2;" x="475.587315" xlink:href="#C1_0_a39ac59d7c" y="265.229724"/>
    </g>
    <g clip-path="url(#pcd6109b8e8)">
     <use style="fill:#0000ff;fill-opacity:0.2;" x="542.933033" xlink:href="#C1_0_a39ac59d7c" y="265.229724"/>
    </g>
    <g clip-path="url(#pcd6109b8e8)">
     <use style="fill:#0000ff;fill-opacity:0.2;" x="470.337315" xlink:href="#C1_0_a39ac59d7c" y="265.229724"/>
    </g>
    <g clip-path="url(#pcd6109b8e8)">
     <use style="fill:#0000ff;fill-opacity:0.2;" x="548.183033" xlink:href="#C1_0_a39ac59d7c" y="265.229724"/>
    </g>
    <g clip-path="url(#pcd6109b8e8)">
     <use style="fill:#0000ff;fill-opacity:0.2;" x="465.087317" xlink:href="#C1_0_a39ac59d7c" y="265.225415"/>
    </g>
    <g clip-path="url(#pcd6109b8e8)">
     <use style="fill:#0000ff;fill-opacity:0.2;" x="553.432961" xlink:href="#C1_0_a39ac59d7c" y="265.203531"/>
    </g>
    <g clip-path="url(#pcd6109b8e8)">
     <use style="fill:#0000ff;fill-opacity:0.2;" x="459.837746" xlink:href="#C1_0_a39ac59d7c" y="265.161488"/>
    </g>
    <g clip-path="url(#pcd6109b8e8)">
     <use style="fill:#0000ff;fill-opacity:0.2;" x="558.682652" xlink:href="#C1_0_a39ac59d7c" y="265.149247"/>
    </g>
    <g clip-path="url(#pcd6109b8e8)">
     <use style="fill:#0000ff;fill-opacity:0.2;" x="454.58779" xlink:href="#C1_0_a39ac59d7c" y="265.140971"/>
    </g>
    <g clip-path="url(#pcd6109b8e8)">
     <use style="fill:#0000ff;fill-opacity:0.2;" x="563.932593" xlink:href="#C1_0_a39ac59d7c" y="265.125582"/>
    </g>
    <g clip-path="url(#pcd6109b8e8)">
     <use style="fill:#0000ff;fill-opacity:0.2;" x="449.337989" xlink:href="#C1_0_a39ac59d7c" y="265.097432"/>
    </g>
    <g clip-path="url(#pcd6109b8e8)">
     <use style="fill:#0000ff;fill-opacity:0.2;" x="569.182479" xlink:href="#C1_0_a39ac59d7c" y="265.092566"/>
    </g>
    <g clip-path="url(#pcd6109b8e8)">
     <use style="fill:#0000ff;fill-opacity:0.2;" x="444.089225" xlink:href="#C1_0_a39ac59d7c" y="264.988941"/>
    </g>
    <g clip-path="url(#pcd6109b8e8)">
     <use style="fill:#0000ff;fill-opacity:0.2;" x="574.431252" xlink:href="#C1_0_a39ac59d7c" y="264.984474"/>
    </g>
    <g clip-path="url(#pcd6109b8e8)">
     <use style="fill:#0000ff;fill-opacity:0.2;" x="438.83923" xlink:href="#C1_0_a39ac59d7c" y="264.982246"/>
    </g>
    <g clip-path="url(#pcd6109b8e8)">
     <use style="fill:#0000ff;fill-opacity:0.2;" x="579.660844" xlink:href="#C1_0_a39ac59d7c" y="264.544041"/>
    </g>
    <g clip-path="url(#pcd6109b8e8)">
     <use style="fill:#0000ff;fill-opacity:0.2;" x="433.619793" xlink:href="#C1_0_a39ac59d7c" y="264.443514"/>
    </g>
    <g clip-path="url(#pcd6109b8e8)">
     <use style="fill:#0000ff;fill-opacity:0.2;" x="584.901055" xlink:href="#C1_0_a39ac59d7c" y="264.238856"/>
    </g>
    <g clip-path="url(#pcd6109b8e8)">
     <use style="fill:#0000ff;fill-opacity:0.2;" x="428.419462" xlink:href="#C1_0_a39ac59d7c" y="263.757365"/>
    </g>
    <g clip-path="url(#pcd6109b8e8)">
     <use style="fill:#0000ff;fill-opacity:0.2;" x="509.547653" xlink:href="#C1_0_a39ac59d7c" y="262.935926"/>
    </g>
    <g clip-path="url(#pcd6109b8e8)">
     <use style="fill:#0000ff;fill-opacity:0.2;" x="504.347527" xlink:href="#C1_0_a39ac59d7c" y="262.248368"/>
    </g>
    <g clip-path="url(#pcd6109b8e8)">
     <use style="fill:#0000ff;fill-opacity:0.2;" x="514.680075" xlink:href="#C1_0_a39ac59d7c" y="261.883667"/>
    </g>
    <g clip-path="url(#pcd6109b8e8)">
     <use style="fill:#0000ff;fill-opacity:0.2;" x="508.5" xlink:href="#C1_0_a39ac59d7c" y="253.80217"/>
    </g>
    <g clip-path="url(#pcd6109b8e8)">
     <use style="fill:#0000ff;fill-opacity:0.2;" x="505.965525" xlink:href="#C1_0_a39ac59d7c" y="249.423399"/>
    </g>
    <g clip-path="url(#pcd6109b8e8)">
     <use style="fill:#0000ff;fill-opacity:0.2;" x="510.421078" xlink:href="#C1_0_a39ac59d7c" y="246.778841"/>
    </g>
    <g clip-path="url(#pcd6109b8e8)">
     <use style="fill:#0000ff;fill-opacity:0.2;" x="501.753763" xlink:href="#C1_0_a39ac59d7c" y="246.438393"/>
    </g>
   </g>
   <g id="text_11">
    <!-- p=0.0385* -->
    <defs>
     <path d="M 10.59375 45.40625 
L 73.1875 45.40625 
L 73.1875 37.203125 
L 10.59375 37.203125 
z
M 10.59375 25.484375 
L 73.1875 25.484375 
L 73.1875 17.1875 
L 10.59375 17.1875 
z
" id="DejaVuSans-61"/>
     <path d="M 40.578125 39.3125 
Q 47.65625 37.796875 51.625 33 
Q 55.609375 28.21875 55.609375 21.1875 
Q 55.609375 10.40625 48.1875 4.484375 
Q 40.765625 -1.421875 27.09375 -1.421875 
Q 22.515625 -1.421875 17.65625 -0.515625 
Q 12.796875 0.390625 7.625 2.203125 
L 7.625 11.71875 
Q 11.71875 9.328125 16.59375 8.109375 
Q 21.484375 6.890625 26.8125 6.890625 
Q 36.078125 6.890625 40.9375 10.546875 
Q 45.796875 14.203125 45.796875 21.1875 
Q 45.796875 27.640625 41.28125 31.265625 
Q 36.765625 34.90625 28.71875 34.90625 
L 20.21875 34.90625 
L 20.21875 43.015625 
L 29.109375 43.015625 
Q 36.375 43.015625 40.234375 45.921875 
Q 44.09375 48.828125 44.09375 54.296875 
Q 44.09375 59.90625 40.109375 62.90625 
Q 36.140625 65.921875 28.71875 65.921875 
Q 24.65625 65.921875 20.015625 65.03125 
Q 15.375 64.15625 9.8125 62.3125 
L 9.8125 71.09375 
Q 15.4375 72.65625 20.34375 73.4375 
Q 25.25 74.21875 29.59375 74.21875 
Q 40.828125 74.21875 47.359375 69.109375 
Q 53.90625 64.015625 53.90625 55.328125 
Q 53.90625 49.265625 50.4375 45.09375 
Q 46.96875 40.921875 40.578125 39.3125 
z
" id="DejaVuSans-51"/>
     <path d="M 31.78125 34.625 
Q 24.75 34.625 20.71875 30.859375 
Q 16.703125 27.09375 16.703125 20.515625 
Q 16.703125 13.921875 20.71875 10.15625 
Q 24.75 6.390625 31.78125 6.390625 
Q 38.8125 6.390625 42.859375 10.171875 
Q 46.921875 13.96875 46.921875 20.515625 
Q 46.921875 27.09375 42.890625 30.859375 
Q 38.875 34.625 31.78125 34.625 
z
M 21.921875 38.8125 
Q 15.578125 40.375 12.03125 44.71875 
Q 8.5 49.078125 8.5 55.328125 
Q 8.5 64.0625 14.71875 69.140625 
Q 20.953125 74.21875 31.78125 74.21875 
Q 42.671875 74.21875 48.875 69.140625 
Q 55.078125 64.0625 55.078125 55.328125 
Q 55.078125 49.078125 51.53125 44.71875 
Q 48 40.375 41.703125 38.8125 
Q 48.828125 37.15625 52.796875 32.3125 
Q 56.78125 27.484375 56.78125 20.515625 
Q 56.78125 9.90625 50.3125 4.234375 
Q 43.84375 -1.421875 31.78125 -1.421875 
Q 19.734375 -1.421875 13.25 4.234375 
Q 6.78125 9.90625 6.78125 20.515625 
Q 6.78125 27.484375 10.78125 32.3125 
Q 14.796875 37.15625 21.921875 38.8125 
z
M 18.3125 54.390625 
Q 18.3125 48.734375 21.84375 45.5625 
Q 25.390625 42.390625 31.78125 42.390625 
Q 38.140625 42.390625 41.71875 45.5625 
Q 45.3125 48.734375 45.3125 54.390625 
Q 45.3125 60.0625 41.71875 63.234375 
Q 38.140625 66.40625 31.78125 66.40625 
Q 25.390625 66.40625 21.84375 63.234375 
Q 18.3125 60.0625 18.3125 54.390625 
z
" id="DejaVuSans-56"/>
     <path d="M 47.015625 60.890625 
L 29.5 51.421875 
L 47.015625 41.890625 
L 44.1875 37.109375 
L 27.78125 47.015625 
L 27.78125 28.609375 
L 22.21875 28.609375 
L 22.21875 47.015625 
L 5.8125 37.109375 
L 2.984375 41.890625 
L 20.515625 51.421875 
L 2.984375 60.890625 
L 5.8125 65.71875 
L 22.21875 55.8125 
L 22.21875 74.21875 
L 27.78125 74.21875 
L 27.78125 55.8125 
L 44.1875 65.71875 
z
" id="DejaVuSans-42"/>
    </defs>
    <g style="fill:#4c4c4c;" transform="translate(196.66875 124.32)scale(0.12 -0.12)">
     <use xlink:href="#DejaVuSans-112"/>
     <use x="63.476562" xlink:href="#DejaVuSans-61"/>
     <use x="147.265625" xlink:href="#DejaVuSans-48"/>
     <use x="210.888672" xlink:href="#DejaVuSans-46"/>
     <use x="242.675781" xlink:href="#DejaVuSans-48"/>
     <use x="306.298828" xlink:href="#DejaVuSans-51"/>
     <use x="369.921875" xlink:href="#DejaVuSans-56"/>
     <use x="433.544922" xlink:href="#DejaVuSans-53"/>
     <use x="497.167969" xlink:href="#DejaVuSans-42"/>
    </g>
   </g>
  </g>
 </g>
 <defs>
  <clipPath id="pcd6109b8e8">
   <rect height="326.16" width="558" x="90" y="51.84"/>
  </clipPath>
 </defs>
</svg>
